<?xml version="1.0" encoding="UTF-8"?>
<svg xmlns="http://www.w3.org/2000/svg" xmlns:xlink="http://www.w3.org/1999/xlink" width="375pt" height="374.999991pt" viewBox="0 0 375 374.999991" version="1.2">
<defs>
<clipPath id="clip1">
  <path d="M 119 143.589844 L 255 143.589844 L 255 190 L 119 190 Z M 119 143.589844 "/>
</clipPath>
<clipPath id="clip2">
  <path d="M 113 198 L 261 198 L 261 231.28125 L 113 231.28125 Z M 113 198 "/>
</clipPath>
</defs>
<g id="surface1">
<rect x="0" y="0" width="375" height="374.999991" style="fill:rgb(100%,100%,100%);fill-opacity:1;stroke:none;"/>
<rect x="0" y="0" width="375" height="374.999991" style="fill:rgb(100%,100%,100%);fill-opacity:1;stroke:none;"/>
<rect x="0" y="0" width="375" height="374.999991" style="fill:rgb(100%,100%,100%);fill-opacity:1;stroke:none;"/>
<g clip-path="url(#clip1)" clip-rule="nonzero">
<path style=" stroke:none;fill-rule:nonzero;fill:rgb(14.509583%,18.429565%,24.308777%);fill-opacity:1;" d="M 155.257812 175.433594 C 155.257812 177.238281 155.453125 178.699219 155.796875 179.773438 C 156.1875 180.847656 156.675781 182.015625 157.359375 183.285156 C 157.601562 183.675781 157.699219 184.066406 157.699219 184.40625 C 157.699219 184.894531 157.40625 185.382812 156.773438 185.871094 L 153.695312 187.917969 C 153.257812 188.210938 152.816406 188.359375 152.425781 188.359375 C 151.9375 188.359375 151.449219 188.113281 150.960938 187.675781 C 150.277344 186.945312 149.691406 186.164062 149.203125 185.382812 C 148.714844 184.554688 148.226562 183.625 147.6875 182.503906 C 143.878906 186.992188 139.09375 189.238281 133.328125 189.238281 C 129.226562 189.238281 125.953125 188.066406 123.558594 185.726562 C 121.167969 183.382812 119.945312 180.261719 119.945312 176.359375 C 119.945312 172.214844 121.410156 168.847656 124.390625 166.3125 C 127.371094 163.777344 131.328125 162.507812 136.355469 162.507812 C 138.019531 162.507812 139.726562 162.652344 141.535156 162.898438 C 143.339844 163.140625 145.199219 163.53125 147.152344 163.96875 L 147.152344 160.410156 C 147.152344 156.703125 146.371094 154.117188 144.855469 152.605469 C 143.292969 151.09375 140.65625 150.363281 136.894531 150.363281 C 135.183594 150.363281 133.425781 150.558594 131.621094 150.996094 C 129.8125 151.433594 128.054688 151.972656 126.34375 152.65625 C 125.5625 152.996094 124.976562 153.191406 124.636719 153.289062 C 124.292969 153.386719 124.050781 153.433594 123.855469 153.433594 C 123.167969 153.433594 122.828125 152.945312 122.828125 151.921875 L 122.828125 149.53125 C 122.828125 148.753906 122.925781 148.167969 123.167969 147.824219 C 123.414062 147.484375 123.855469 147.144531 124.539062 146.800781 C 126.246094 145.921875 128.296875 145.191406 130.691406 144.605469 C 133.085938 143.972656 135.625 143.679688 138.308594 143.679688 C 144.121094 143.679688 148.371094 144.996094 151.105469 147.628906 C 153.792969 150.265625 155.160156 154.265625 155.160156 159.628906 L 155.160156 175.433594 Z M 135.429688 182.847656 C 137.042969 182.847656 138.703125 182.554688 140.460938 181.96875 C 142.21875 181.382812 143.78125 180.308594 145.097656 178.847656 C 145.882812 177.921875 146.46875 176.894531 146.761719 175.726562 C 147.054688 174.554688 147.25 173.140625 147.25 171.480469 L 147.25 169.433594 C 145.832031 169.09375 144.316406 168.800781 142.753906 168.605469 C 141.191406 168.410156 139.679688 168.3125 138.164062 168.3125 C 134.890625 168.3125 132.5 168.945312 130.886719 170.261719 C 129.273438 171.578125 128.492188 173.433594 128.492188 175.871094 C 128.492188 178.164062 129.078125 179.871094 130.300781 181.042969 C 131.472656 182.261719 133.183594 182.847656 135.429688 182.847656 Z M 174.652344 188.113281 C 173.769531 188.113281 173.183594 187.96875 172.789062 187.625 C 172.402344 187.335938 172.058594 186.652344 171.765625 185.726562 L 160.289062 148.019531 C 159.996094 147.046875 159.847656 146.410156 159.847656 146.070312 C 159.847656 145.289062 160.238281 144.851562 161.023438 144.851562 L 165.808594 144.851562 C 166.738281 144.851562 167.371094 144.996094 167.714844 145.339844 C 168.105469 145.628906 168.398438 146.3125 168.691406 147.242188 L 176.894531 179.53125 L 184.515625 147.242188 C 184.757812 146.265625 185.050781 145.632812 185.441406 145.339844 C 185.835938 145.046875 186.515625 144.851562 187.394531 144.851562 L 191.300781 144.851562 C 192.230469 144.851562 192.863281 144.996094 193.257812 145.339844 C 193.648438 145.632812 193.988281 146.3125 194.183594 147.242188 L 201.902344 179.921875 L 210.351562 147.242188 C 210.644531 146.265625 210.984375 145.632812 211.332031 145.339844 C 211.714844 145.046875 212.355469 144.851562 213.230469 144.851562 L 217.777344 144.851562 C 218.554688 144.851562 218.992188 145.242188 218.992188 146.070312 C 218.992188 146.3125 218.949219 146.558594 218.902344 146.851562 C 218.847656 147.144531 218.75 147.535156 218.554688 148.070312 L 206.785156 185.773438 C 206.492188 186.75 206.152344 187.382812 205.757812 187.675781 C 205.367188 187.96875 204.734375 188.164062 203.902344 188.164062 L 199.703125 188.164062 C 198.777344 188.164062 198.140625 188.019531 197.75 187.675781 C 197.359375 187.335938 197.019531 186.699219 196.824219 185.726562 L 189.25 154.265625 L 181.734375 185.675781 C 181.484375 186.652344 181.191406 187.285156 180.804688 187.628906 C 180.414062 187.96875 179.726562 188.113281 178.851562 188.113281 Z M 237.40625 189.429688 C 234.867188 189.429688 232.332031 189.136719 229.890625 188.554688 C 227.445312 187.96875 225.539062 187.335938 224.269531 186.601562 C 223.488281 186.164062 222.953125 185.675781 222.757812 185.238281 C 222.558594 184.796875 222.460938 184.308594 222.460938 183.871094 L 222.460938 181.382812 C 222.460938 180.359375 222.855469 179.871094 223.585938 179.871094 C 223.878906 179.871094 224.171875 179.921875 224.46875 180.019531 C 224.761719 180.113281 225.199219 180.308594 225.6875 180.503906 C 227.347656 181.238281 229.15625 181.824219 231.058594 182.210938 C 233.011719 182.601562 234.917969 182.796875 236.871094 182.796875 C 239.949219 182.796875 242.339844 182.261719 244.003906 181.1875 C 245.664062 180.113281 246.539062 178.554688 246.539062 176.554688 C 246.539062 175.1875 246.101562 174.066406 245.226562 173.140625 C 244.34375 172.214844 242.6875 171.382812 240.289062 170.605469 L 233.207031 168.410156 C 229.640625 167.289062 227.007812 165.628906 225.394531 163.433594 C 223.78125 161.289062 222.953125 158.898438 222.953125 156.363281 C 222.953125 154.3125 223.390625 152.507812 224.269531 150.949219 C 225.152344 149.386719 226.324219 148.019531 227.785156 146.949219 C 229.253906 145.824219 230.914062 144.996094 232.867188 144.410156 C 234.820312 143.824219 236.871094 143.582031 239.019531 143.582031 C 240.09375 143.582031 241.214844 143.632812 242.292969 143.777344 C 243.417969 143.921875 244.441406 144.117188 245.46875 144.3125 C 246.441406 144.558594 247.371094 144.800781 248.25 145.09375 C 249.132812 145.386719 249.8125 145.679688 250.300781 145.972656 C 250.988281 146.363281 251.476562 146.753906 251.765625 147.191406 C 252.058594 147.582031 252.210938 148.117188 252.210938 148.800781 L 252.210938 151.09375 C 252.210938 152.117188 251.816406 152.65625 251.085938 152.65625 C 250.695312 152.65625 250.0625 152.460938 249.230469 152.070312 C 246.441406 150.800781 243.320312 150.167969 239.851562 150.167969 C 237.066406 150.167969 234.867188 150.605469 233.359375 151.53125 C 231.84375 152.460938 231.058594 153.875 231.058594 155.875 C 231.058594 157.238281 231.546875 158.410156 232.527344 159.335938 C 233.5 160.261719 235.3125 161.191406 237.898438 162.019531 L 244.835938 164.214844 C 248.347656 165.335938 250.890625 166.898438 252.40625 168.898438 C 253.914062 170.898438 254.652344 173.1875 254.652344 175.726562 C 254.652344 177.824219 254.210938 179.726562 253.378906 181.382812 C 252.503906 183.042969 251.328125 184.503906 249.8125 185.675781 C 248.304688 186.894531 246.496094 187.773438 244.390625 188.40625 C 242.195312 189.089844 239.902344 189.429688 237.40625 189.429688 Z M 237.40625 189.429688 "/>
</g>
<g clip-path="url(#clip2)" clip-rule="nonzero">
<path style=" stroke:none;fill-rule:nonzero;fill:rgb(100%,59.999084%,0%);fill-opacity:1;" d="M 246.636719 213.132812 C 230.570312 224.988281 207.226562 231.28125 187.152344 231.28125 C 159.019531 231.28125 133.671875 220.890625 114.527344 203.621094 C 113.011719 202.257812 114.378906 200.40625 116.1875 201.476562 C 136.894531 213.480469 162.4375 220.746094 188.859375 220.746094 C 206.683594 220.746094 226.273438 217.042969 244.292969 209.429688 C 246.984375 208.207031 249.277344 211.183594 246.636719 213.132812 Z M 253.332031 205.527344 C 251.28125 202.890625 239.753906 204.261719 234.527344 204.894531 C 232.964844 205.089844 232.71875 203.71875 234.136719 202.695312 C 243.320312 196.261719 258.410156 198.113281 260.167969 200.257812 C 261.929688 202.453125 259.683594 217.523438 251.085938 224.746094 C 249.765625 225.867188 248.492188 225.28125 249.082031 223.820312 C 251.035156 218.992188 255.382812 208.109375 253.332031 205.527344 Z M 253.332031 205.527344 "/>
</g>
</g>
</svg>
