<?xml version="1.0" encoding="UTF-8"?>
<svg width="124px" height="45px" viewBox="0 0 124 45" version="1.1" xmlns="http://www.w3.org/2000/svg" xmlns:xlink="http://www.w3.org/1999/xlink">
    <title>celsius_logo</title>
    <g id="Page-1" stroke="none" stroke-width="1" fill="none" fill-rule="evenodd">
        <g id="Homepage" transform="translate(-279.000000, -712.000000)" fill="#242A38">
            <g id="proof" transform="translate(0.000000, 569.000000)">
                <g id="celsius_logo" transform="translate(279.000000, 143.000000)">
                    <path d="M22.0542857,2.02018776 C11.0074041,2.02018776 2.02018776,11.0074041 2.02018776,22.0542857 C2.02018776,33.1011673 11.0074041,42.0883837 22.0542857,42.0883837 C33.1011673,42.0883837 42.0883837,33.1011673 42.0883837,22.0542857 C42.0883837,11.0074041 33.1011673,2.02018776 22.0542857,2.02018776 M22.0542857,44.1085714 C9.89342857,44.1085714 2.51735141e-14,34.2153959 2.51735141e-14,22.0542857 C2.51735141e-14,9.89342857 9.89342857,-7.19243259e-15 22.0542857,-7.19243259e-15 C34.2151429,-7.19243259e-15 44.1085714,9.89342857 44.1085714,22.0542857 C44.1085714,34.2153959 34.2151429,44.1085714 22.0542857,44.1085714" id="Fill-51"/>
                    <path d="M22.0542857,35.0174988 C14.9063184,35.0174988 9.09097143,29.2021518 9.09097143,22.0541845 C9.09097143,14.9064702 14.9063184,9.09112327 22.0542857,9.09112327 C25.2787918,9.09112327 28.3696816,10.2830416 30.7575673,12.4474743 C31.1708163,12.8220049 31.2021959,13.4609845 30.8276653,13.8742335 C30.4531347,14.2874824 29.8141551,14.318862 29.4009061,13.9443314 C27.3852735,12.1174824 24.7762122,11.111311 22.0542857,11.111311 C16.0202939,11.111311 11.1114122,16.0201927 11.1114122,22.0541845 C11.1114122,28.0884294 16.0202939,32.997311 22.0542857,32.997311 C24.7767184,32.997311 27.3855265,31.9911396 29.4009061,30.1645437 C29.8141551,29.78976 30.4528816,29.8213927 30.8276653,30.2346416 C31.2021959,30.6478906 31.1708163,31.2868702 30.7575673,31.6611478 C28.3699347,33.8255804 25.2790449,35.0174988 22.0542857,35.0174988" id="Fill-53"/>
                    <path d="M34.1045804,16.8614694 C34.1045804,17.3263429 33.7262539,17.7049224 33.2618865,17.7049224 C32.7960008,17.7049224 32.4179273,17.3263429 32.4179273,16.8614694 C32.4179273,16.3963429 32.7960008,16.0180163 33.2618865,16.0180163 C33.7262539,16.0180163 34.1045804,16.3963429 34.1045804,16.8614694 M33.2618865,14.9688245 C32.2187682,14.9688245 31.3692416,15.818098 31.3692416,16.8614694 C31.3692416,17.9045878 32.2187682,18.7541143 33.2618865,18.7541143 C34.3050049,18.7541143 35.1542784,17.9045878 35.1542784,16.8614694 C35.1542784,15.818098 34.3050049,14.9688245 33.2618865,14.9688245" id="Fill-55"/>
                    <path d="M60.160498,18.1477796 C59.5964245,18.9006367 58.8002939,19.2827592 57.7953878,19.2827592 C55.8399837,19.2827592 54.4744653,17.839298 54.4744653,15.7733061 C54.4744653,13.6956735 55.8478286,12.2441143 57.8141143,12.2441143 C58.7269061,12.2441143 59.623502,12.7067102 60.044849,13.3945306 L60.0714204,13.4385633 L61.1552816,12.6614122 L61.1261796,12.6221878 C60.4282367,11.6795347 59.1209224,11.0704163 57.7953878,11.0704163 C54.9816,11.0704163 53.0165796,13.0043102 53.0165796,15.7733061 C53.0165796,18.542302 54.9816,20.4756898 57.7953878,20.4756898 C59.2150612,20.4756898 60.3609224,19.9543837 61.2008327,18.9256898 L61.2324653,18.8869714 L60.1890939,18.1095673 L60.160498,18.1477796 Z" id="Fill-57"/>
                    <path d="M64.9049151,15.0443127 C65.0347355,13.6588024 66.1990702,12.2441902 67.9568335,12.2441902 C69.6404498,12.2441902 70.7410131,13.3156514 70.8394539,15.0443127 L64.9049151,15.0443127 Z M67.9568335,11.0704922 C65.3834539,11.0704922 63.4434865,13.0921984 63.4434865,15.773382 C63.4434865,18.4540596 65.4322947,20.4755127 68.0702049,20.4755127 C69.6326049,20.4755127 70.9247355,19.8395698 71.9116743,18.5841331 L71.9412824,18.54668 L70.8963927,17.7272678 L70.8683029,17.7725657 C70.4165886,18.5026473 69.4440743,19.2828351 68.0702049,19.2828351 C66.3362294,19.2828351 64.945658,17.9157984 64.8831518,16.161578 L72.220409,16.161578 L72.2242049,16.1183045 C72.2431845,15.8885249 72.2431845,15.6774718 72.2431845,15.5081739 C72.2431845,12.8120596 70.5608335,11.0704922 67.9568335,11.0704922 L67.9568335,11.0704922 Z" id="Fill-59"/>
                    <polygon id="Fill-61" points="75.9134327 20.2489469 77.2956531 20.2489469 77.2956531 7.31827755 75.9134327 7.31827755"/>
                    <path d="M84.44772,15.0452996 C82.9298588,14.7302384 82.3655322,14.3326792 82.3655322,13.5780506 C82.3655322,12.5936424 83.3494343,12.2441649 84.191369,12.2441649 C85.1206098,12.2441649 85.9382506,12.7128343 86.3251812,13.4674629 L86.3509935,13.517822 L87.4138506,12.7206792 L87.3933527,12.6842384 C86.8467404,11.7185567 85.5829527,11.0704669 84.2483078,11.0704669 C82.7684057,11.0704669 81.0402506,11.757022 81.0402506,13.6919282 C81.0402506,15.5152343 82.777769,15.9254465 83.612618,16.1223282 C85.3202751,16.5246955 86.1875159,16.8913812 86.1875159,17.77912 C86.1875159,19.0871935 84.9133527,19.2828098 84.154169,19.2828098 C83.1824139,19.2828098 82.2101527,18.7372098 81.7346506,17.9251363 L81.7080792,17.8795853 L80.6062506,18.6952016 L80.6320629,18.7334139 C81.3884629,19.8410629 82.6793282,20.4754873 84.1726424,20.4754873 C85.8056465,20.4754873 87.5507567,19.742622 87.5507567,17.6844751 C87.5507567,16.307569 86.5939322,15.4937241 84.44772,15.0452996" id="Fill-63"/>
                    <polygon id="Fill-64" points="91.0234653 20.2489469 92.4051796 20.2489469 92.4051796 11.2974122 91.0234653 11.2974122"/>
                    <path d="M102.886571,16.2461004 C102.886571,18.3596678 102.159779,19.3023208 100.531077,19.3023208 L100.507795,19.3023208 C98.8785869,19.3023208 98.1520482,18.3596678 98.1520482,16.2461004 L98.1520482,11.2972351 L96.7700808,11.2972351 L96.7700808,16.7762637 C96.7700808,19.0237004 98.2439094,20.4755127 100.524497,20.4755127 C102.798758,20.4755127 104.268285,19.0237004 104.268285,16.7762637 L104.268285,11.2972351 L102.886571,11.2972351 L102.886571,16.2461004 Z" id="Fill-65"/>
                    <path d="M111.467421,15.0452996 C109.950319,14.7302384 109.385993,14.3326792 109.385993,13.5780506 C109.385993,12.5936424 110.369895,12.2441649 111.211829,12.2441649 C112.140817,12.2441649 112.958711,12.7128343 113.345389,13.4674629 L113.370948,13.517822 L114.434311,12.7206792 L114.413813,12.6842384 C113.867201,11.7185567 112.603413,11.0704669 111.268768,11.0704669 C109.788866,11.0704669 108.060711,11.757022 108.060711,13.6919282 C108.060711,15.5152343 109.797723,15.9249404 110.633078,16.1223282 C112.340736,16.5246955 113.207723,16.8913812 113.207723,17.77912 C113.207723,19.0871935 111.933307,19.2828098 111.174123,19.2828098 C110.202874,19.2828098 109.230613,18.7372098 108.754605,17.9251363 L108.728033,17.8795853 L107.626711,18.6952016 L107.65227,18.7334139 C108.408923,19.8410629 109.699282,20.4754873 111.192597,20.4754873 C112.826107,20.4754873 114.571217,19.742622 114.571217,17.6844751 C114.571217,16.307569 113.613633,15.4937241 111.467421,15.0452996" id="Fill-66"/>
                    <path d="M59.245631,31.7504278 C59.245631,29.5976359 58.50568,28.6375216 56.8468637,28.6375216 L56.8230759,28.6375216 C55.1637535,28.6375216 54.4238024,29.5976359 54.4238024,31.7504278 L54.4238024,36.7903951 L53.016529,36.7903951 L53.016529,31.2103951 C53.016529,28.9214563 54.5174351,27.4428196 56.8402841,27.4428196 C59.1560473,27.4428196 60.6531576,28.9214563 60.6531576,31.2103951 L60.6531576,36.7903951 L59.245631,36.7903951 L59.245631,31.7504278 Z" id="Fill-67"/>
                    <path d="M70.4181322,31.3357616 C70.4181322,30.4786433 70.1625404,29.7839902 69.6508506,29.2528147 C69.1378955,28.7221453 68.4212261,28.4559249 67.4998302,28.4559249 C67.0901241,28.4559249 66.6933241,28.5358922 66.3096833,28.6958269 C65.9250302,28.8557616 65.5897241,29.0706106 65.3014873,29.3391086 C65.0135037,29.6076065 64.7829649,29.915582 64.6101241,30.2607576 C64.4370302,30.6059331 64.3512424,30.9650269 64.3512424,31.3357616 L70.4181322,31.3357616 Z M64.3130302,32.3725535 C64.3512424,32.8204718 64.4598057,33.2433371 64.63872,33.6401371 C64.8181404,34.0369371 65.0550057,34.3788229 65.349822,34.6670596 C65.6436261,34.9552963 65.9832343,35.1827984 66.366622,35.3485535 C66.7512751,35.5153208 67.1665486,35.598578 67.6149731,35.598578 C68.2934302,35.598578 68.8792669,35.4419331 69.3722302,35.1281371 C69.8644343,34.8148473 70.239218,34.4532229 70.495569,34.0432637 L71.4744098,34.8500229 C70.9371608,35.5282269 70.3444914,36.0146106 69.69792,36.3084147 C69.0516016,36.603231 68.3577078,36.7502596 67.6149731,36.7502596 C66.9496751,36.7502596 66.3316996,36.6318269 65.7620588,36.3952147 C65.1929241,36.1586024 64.7032506,35.8286106 64.2932914,35.4067576 C63.8835853,34.9838922 63.5601731,34.4848555 63.3235608,33.9086351 C63.0869486,33.3324147 62.968769,32.705582 62.968769,32.0271249 C62.968769,31.3489208 63.0836588,30.7210759 63.3139445,30.1456147 C63.5449894,29.5693943 63.8640996,29.0706106 64.274818,28.6477453 C64.6835118,28.2256392 65.163569,27.8959004 65.7144833,27.6592882 C66.2646384,27.4224229 66.8595853,27.3039902 67.4998302,27.3039902 C68.1780343,27.3039902 68.7863935,27.4257127 69.3241486,27.6691576 C69.8613976,27.9123494 70.3126057,28.2347494 70.67752,28.6378759 C71.0424343,29.0412555 71.3208016,29.5154922 71.512622,30.0590678 C71.7044424,30.6034024 71.8008588,31.1824065 71.8008588,31.7968392 L71.8008588,32.3725535 L64.3130302,32.3725535 Z" id="Fill-68"/>
                    <path d="M79.5196816,28.6860335 L76.9270694,28.6860335 L76.9270694,33.9853886 C76.9270694,34.3186702 76.9589551,34.5902049 77.0234857,34.8017641 C77.0872571,35.0130702 77.1768408,35.1757886 77.2919837,35.2916906 C77.4071265,35.4068335 77.5450449,35.4865478 77.7049796,35.5315927 C77.8651673,35.5766376 78.041298,35.5984008 78.2331184,35.5984008 C78.4502449,35.5984008 78.6747102,35.5665151 78.9049959,35.5022376 C79.1350286,35.4384661 79.3465878,35.355209 79.5384082,35.2532253 L79.5963592,36.4236335 C79.1231347,36.6415192 78.5532408,36.7500824 77.8871837,36.7500824 C77.6437388,36.7500824 77.3916898,36.7184498 77.1287592,36.6546784 C76.8668408,36.5901478 76.6266857,36.4694376 76.4088,36.2897641 C76.1909143,36.1103437 76.0122531,35.8668988 75.871551,35.5601886 C75.7303429,35.2532253 75.6602449,34.8498457 75.6602449,34.3503029 L75.6602449,28.6860335 L73.7589959,28.6860335 L73.7589959,27.5343518 L75.6602449,27.5343518 L75.6602449,24.9999437 L76.9270694,24.9999437 L76.9270694,27.5343518 L79.5196816,27.5343518 L79.5196816,28.6860335 Z" id="Fill-69"/>
                    <polygon id="Fill-70" points="82.3994931 27.5344024 84.4728237 34.8304106 84.511289 34.8304106 86.9120808 27.5344024 88.2171176 27.5344024 90.6171502 34.8304106 90.6556155 34.8304106 92.7297053 27.5344024 94.2268155 27.5344024 91.385191 36.5201004 89.9650114 36.5201004 87.5837053 29.1471616 87.5454931 29.1471616 85.16444 36.5201004 83.7437543 36.5201004 80.9016237 27.5344024"/>
                    <path d="M104.345646,32.0272261 C104.345646,31.5274302 104.265678,31.0607853 104.105491,30.62552 C103.944797,30.1905078 103.717801,29.8126873 103.423744,29.4925649 C103.12918,29.1726955 102.774136,28.9196343 102.358103,28.7341404 C101.941564,28.5488996 101.471376,28.4560261 100.946527,28.4560261 C100.421678,28.4560261 99.9514906,28.5488996 99.5359641,28.7341404 C99.1196784,28.9196343 98.7679233,29.1726955 98.4796865,29.4925649 C98.1917029,29.8126873 97.9679967,30.1905078 97.807809,30.62552 C97.646862,31.0607853 97.5679069,31.5274302 97.5679069,32.0272261 C97.5679069,32.526769 97.646862,32.9936669 97.807809,33.4286792 C97.9679967,33.8639445 98.1917029,34.2417649 98.4796865,34.5618873 C98.7679233,34.8817567 99.1196784,35.134818 99.5359641,35.3200588 C99.9514906,35.5052996 100.421678,35.5984261 100.946527,35.5984261 C101.471376,35.5984261 101.941564,35.5052996 102.358103,35.3200588 C102.774136,35.134818 103.12918,34.8817567 103.423744,34.5618873 C103.717801,34.2417649 103.944797,33.8639445 104.105491,33.4286792 C104.265678,32.9936669 104.345646,32.526769 104.345646,32.0272261 M105.727613,32.0272261 C105.727613,32.7056833 105.60918,33.3322629 105.372568,33.9087363 C105.135703,34.4849567 104.805711,34.9839935 104.383858,35.4066057 C103.960993,35.8284588 103.458919,36.1584506 102.876119,36.3953159 C102.294331,36.6316751 101.65105,36.7501078 100.946527,36.7501078 C100.255923,36.7501078 99.618209,36.6316751 99.0364212,36.3953159 C98.4536212,36.1584506 97.9512947,35.8284588 97.5294416,35.4066057 C97.1068294,34.9839935 96.7768376,34.4849567 96.5399722,33.9087363 C96.3036131,33.3322629 96.1851804,32.7056833 96.1851804,32.0272261 C96.1851804,31.348769 96.3036131,30.7211771 96.5399722,30.1454629 C96.7768376,29.5692424 97.1068294,29.0704588 97.5294416,28.6478465 C97.9512947,28.2257404 98.4536212,27.8960016 99.0364212,27.6591363 C99.618209,27.4225241 100.255923,27.3040914 100.946527,27.3040914 C101.65105,27.3040914 102.294331,27.4225241 102.876119,27.6591363 C103.458919,27.8960016 103.960993,28.2257404 104.383858,28.6478465 C104.805711,29.0704588 105.135703,29.5692424 105.372568,30.1454629 C105.60918,30.7211771 105.727613,31.348769 105.727613,32.0272261" id="Fill-71"/>
                    <path d="M108.933848,30.3373339 C108.933848,29.9407869 108.924232,29.5374073 108.905505,29.1277012 C108.885767,28.7179951 108.87033,28.1873257 108.857171,27.5344278 L110.105269,27.5344278 L110.105269,29.2043788 L110.143481,29.2043788 C110.233571,28.9619461 110.36162,28.7278645 110.528134,28.5041584 C110.693889,28.2804522 110.895326,28.0787624 111.132191,27.899089 C111.368803,27.7194155 111.643881,27.5759298 111.958183,27.4673665 C112.271473,27.3585502 112.626771,27.304142 113.023571,27.304142 C113.381905,27.304142 113.695954,27.3423543 113.964705,27.4192849 L113.714934,28.6671298 C113.548167,28.6028522 113.304975,28.5712196 112.985105,28.5712196 C112.498722,28.5712196 112.082942,28.6640931 111.737007,28.8493339 C111.391832,29.0353339 111.103595,29.2721992 110.873309,29.5596767 C110.643277,29.8476604 110.473473,30.1586727 110.364656,30.490689 C110.255587,30.8239706 110.201685,31.1440931 110.201685,31.4508033 L110.201685,36.5201257 L108.933848,36.5201257 L108.933848,30.3373339 Z" id="Fill-72"/>
                    <polygon id="Fill-73" points="117.208748 31.585609 121.451825 27.5343518 123.352821 27.5343518 118.878952 31.64356 123.832878 36.5200498 121.874438 36.5200498 117.208748 31.7969151 117.208748 36.5200498 115.94167 36.5200498 115.94167 22.004711 117.208748 22.004711"/>
                </g>
            </g>
        </g>
    </g>
</svg>