<?xml version="1.0" encoding="UTF-8"?>
<svg width="142px" height="36px" viewBox="0 0 142 36" version="1.1" xmlns="http://www.w3.org/2000/svg" xmlns:xlink="http://www.w3.org/1999/xlink">
    <title>fliptix_logo</title>
    <g id="Page-1" stroke="none" stroke-width="1" fill="none" fill-rule="evenodd">
        <g id="Homepage" transform="translate(-1011.000000, -717.000000)">
            <g id="proof" transform="translate(0.000000, 569.000000)">
                <g id="logos" transform="translate(279.000000, 143.000000)">
                    <g id="fliptix_logo" transform="translate(732.000000, 5.000000)">
                        <polygon id="Path" fill="#242D42" fill-rule="nonzero" points="48.7999971 7.19999957 48.7999971 11.3415746 38.3532349 11.3415746 38.3532349 16.5169958 47.4074939 16.5169958 47.4074939 20.3428454 38.3532349 20.3428454 38.3532349 29.5999982 33.599998 29.5999982 33.599998 7.19999957"/>
                        <polygon id="Path" fill="#242D42" fill-rule="nonzero" points="55.3740684 7.19999957 55.3740684 25.4563596 66.399996 25.4563596 66.399996 29.5999982 50.399997 29.5999982 50.399997 7.19999957"/>
                        <polygon id="Path" fill="#242D42" fill-rule="nonzero" points="73.5999956 7.19999957 73.5999956 29.5999982 68.7999959 29.5999982 68.7999959 7.19999957"/>
                        <path d="M87.5600409,7.20281162 C88.7643336,7.17280958 89.9626967,7.38312804 91.0869635,7.82180342 C91.9831119,8.17807974 92.7911174,8.72960149 93.453848,9.43737202 C94.0538518,10.094442 94.507128,10.8748964 94.7828039,11.7255784 C95.3390578,13.4530979 95.3390578,15.3151984 94.7828039,17.0427179 C94.5097258,17.8994868 94.0562797,18.6858659 93.453848,19.3474307 C92.7900075,20.0538695 91.9823123,20.6051794 91.0869635,20.9629993 C89.9624149,21.4006393 88.7642557,21.610922 87.5600409,21.5819911 L82.4558737,21.5819911 L82.4558737,29.5999982 L77.5999954,29.5999982 L77.5999954,7.20281162 L87.5600409,7.20281162 Z M86.2310851,17.7421787 C86.7694277,17.7428279 87.3069942,17.7007454 87.8388571,17.616317 C88.3194802,17.5447716 88.7818559,17.3794052 89.2003754,17.1293768 C89.5992042,16.8817618 89.9247387,16.5296268 90.1426519,16.1101036 C90.6176072,15.0105624 90.6176072,13.7597972 90.1426519,12.660256 C89.9229864,12.2441775 89.5976816,11.8951402 89.2003754,11.649236 C88.7817273,11.3998824 88.3193503,11.2352163 87.8388571,11.1643591 C87.3071124,11.0789077 86.7694657,11.036819 86.2310851,11.0384492 L82.4558737,11.0384492 L82.4558737,17.7504319 L86.2310851,17.7421787 Z" id="Shape" fill="#242D42" fill-rule="nonzero"/>
                        <polygon id="Path" fill="#7D8BA0" fill-rule="nonzero" points="111.199993 25.4563596 111.199993 29.5999982 92.7999945 29.5999982 92.7999945 25.4563596 99.523071 25.4563596 99.523071 7.19999957 104.462432 7.19999957 104.462432 25.4563596"/>
                        <polygon id="Path" fill="#7D8BA0" fill-rule="nonzero" points="119.199993 7.19999957 119.199993 29.5999982 114.399993 29.5999982 114.399993 7.19999957"/>
                        <polygon id="Path" fill="#7D8BA0" fill-rule="nonzero" points="121.381303 7.19999957 126.970356 7.19999957 131.265591 14.352316 135.706154 7.19999957 140.98235 7.19999957 133.956169 17.8975208 141.599992 29.5999982 135.863592 29.5999982 131.077877 21.853375 126.199313 29.5999982 120.799993 29.5999982 128.43776 17.8686309"/>
                        <path d="M7.15413156,3.19069099 C7.74860955,6.11345535 10.533889,8.02721599 13.438689,7.50879939 C16.3434891,6.9903828 18.3133169,4.22798318 17.8833045,1.27586681 L25.0374361,0 L30.3999982,30.735488 L5.36053774,35.1999979 L0,4.4665578 L7.15413156,3.19069099 Z" id="Path" fill="#7D8BA0"/>
                        <path d="M9.9343952,1.5999999 C9.9343952,4.7192477 12.4682292,7.24789766 15.5938719,7.24789766 C18.7195146,7.24789766 21.2533486,4.7192477 21.2533486,1.5999999 L28.7999983,1.5999999 L28.7999983,33.5999999 L2.39999986,33.5999999 L2.39999986,1.5999999 L9.9343952,1.5999999 Z" id="Path" fill="#242D42"/>
                        <rect id="Rectangle" fill="#FFFFFF" fill-rule="nonzero" x="8.79999948" y="27.9999983" width="13.5999992" height="1"/>
                        <polygon id="Path" fill="#FFFFFF" points="17.3257978 15.999999 19.4720876 15.999999 19.4720876 23.9327374 22.3999987 23.9062406 22.3999987 25.5999985 14.3999991 25.5999985 14.3999991 23.9062406 17.3257978 23.9062406 17.3257978 15.999999"/>
                        <polygon id="Path" fill="#FFFFFF" points="8.79999948 15.999999 15.1999991 16.0163048 15.1999991 17.6937569 10.8112582 17.6937569 10.8112582 19.9521007 14.6516539 19.9521007 14.6516539 21.6458586 10.8112582 21.6458586 10.8112582 25.5999985 8.79999948 25.5999985 8.79999948 15.999999"/>
                    </g>
                </g>
            </g>
        </g>
    </g>
</svg>