<?xml version="1.0" encoding="UTF-8"?>
<svg xmlns="http://www.w3.org/2000/svg" xmlns:xlink="http://www.w3.org/1999/xlink" width="375pt" height="374.999991pt" viewBox="0 0 375 374.999991" version="1.2">
<defs>
<clipPath id="clip1">
  <path d="M 169 152.046875 L 201 152.046875 L 201 167 L 169 167 Z M 169 152.046875 "/>
</clipPath>
<clipPath id="clip2">
  <path d="M 112.5 196 L 262.5 196 L 262.5 223.296875 L 112.5 223.296875 Z M 112.5 196 "/>
</clipPath>
</defs>
<g id="surface1">
<rect x="0" y="0" width="375" height="374.999991" style="fill:rgb(100%,100%,100%);fill-opacity:1;stroke:none;"/>
<rect x="0" y="0" width="375" height="374.999991" style="fill:rgb(100%,100%,100%);fill-opacity:1;stroke:none;"/>
<g clip-path="url(#clip1)" clip-rule="nonzero">
<path style=" stroke:none;fill-rule:nonzero;fill:rgb(91.758728%,26.269531%,20.779419%);fill-opacity:1;" d="M 194.105469 162.855469 L 195.640625 162.882812 L 199.816406 158.667969 L 200.015625 156.882812 C 196.699219 153.902344 192.335938 152.089844 187.558594 152.089844 C 178.914062 152.089844 171.613281 158.03125 169.453125 166.082031 C 169.910156 165.761719 170.882812 166 170.882812 166 L 179.222656 164.617188 C 179.222656 164.617188 179.652344 163.898438 179.867188 163.941406 C 180.3125 163.453125 180.796875 163.007812 181.324219 162.609375 C 181.851562 162.210938 182.410156 161.867188 183 161.578125 C 183.589844 161.289062 184.203125 161.054688 184.839844 160.882812 C 185.472656 160.710938 186.117188 160.597656 186.773438 160.546875 C 187.429688 160.496094 188.085938 160.511719 188.738281 160.585938 C 189.390625 160.660156 190.03125 160.796875 190.660156 160.996094 C 191.289062 161.191406 191.890625 161.449219 192.472656 161.761719 C 193.050781 162.074219 193.597656 162.4375 194.109375 162.855469 Z M 194.105469 162.855469 "/>
</g>
<path style=" stroke:none;fill-rule:nonzero;fill:rgb(25.878906%,52.159119%,95.689392%);fill-opacity:1;" d="M 205.695312 166.097656 C 205.214844 164.316406 204.492188 162.640625 203.53125 161.070312 C 202.566406 159.503906 201.402344 158.105469 200.035156 156.882812 L 194.121094 162.851562 C 195.351562 163.847656 196.304688 165.066406 196.988281 166.5 C 197.667969 167.9375 198.011719 169.449219 198.011719 171.039062 L 198.011719 172.09375 C 200.886719 172.09375 203.21875 174.457031 203.21875 177.355469 C 203.21875 180.253906 200.878906 182.617188 198.011719 182.617188 L 187.585938 182.617188 L 186.542969 183.675781 L 186.542969 189.992188 L 187.585938 191.039062 L 198.011719 191.039062 C 198.898438 191.039062 199.777344 190.949219 200.648438 190.773438 C 201.519531 190.59375 202.367188 190.332031 203.1875 189.988281 C 204.007812 189.644531 204.789062 189.222656 205.527344 188.722656 C 206.265625 188.222656 206.949219 187.65625 207.578125 187.023438 C 208.203125 186.386719 208.765625 185.695312 209.257812 184.949219 C 209.753906 184.203125 210.171875 183.417969 210.511719 182.585938 C 210.851562 181.757812 211.109375 180.902344 211.285156 180.023438 C 211.460938 179.144531 211.546875 178.253906 211.550781 177.359375 C 211.542969 172.699219 209.21875 168.570312 205.679688 166.097656 Z M 205.695312 166.097656 "/>
<path style=" stroke:none;fill-rule:nonzero;fill:rgb(20.388794%,65.879822%,32.548523%);fill-opacity:1;" d="M 177.140625 191.050781 L 187.558594 191.050781 L 187.558594 182.625 L 177.140625 182.625 C 176.390625 182.625 175.675781 182.46875 174.996094 182.15625 L 173.492188 182.621094 L 169.316406 186.835938 L 168.953125 188.257812 C 170.125 189.167969 171.414062 189.863281 172.816406 190.34375 C 174.21875 190.820312 175.660156 191.058594 177.140625 191.054688 Z M 177.140625 191.050781 "/>
<path style=" stroke:none;fill-rule:nonzero;fill:rgb(98.429871%,73.728943%,1.959229%);fill-opacity:1;" d="M 177.140625 163.675781 C 176.25 163.675781 175.367188 163.765625 174.496094 163.941406 C 173.625 164.117188 172.777344 164.378906 171.957031 164.722656 C 171.132812 165.066406 170.351562 165.488281 169.613281 165.988281 C 168.875 166.488281 168.191406 167.054688 167.5625 167.691406 C 166.933594 168.324219 166.371094 169.015625 165.875 169.761719 C 165.382812 170.511719 164.964844 171.296875 164.621094 172.128906 C 164.28125 172.957031 164.023438 173.8125 163.847656 174.695312 C 163.675781 175.574219 163.585938 176.464844 163.585938 177.363281 C 163.585938 178.417969 163.703125 179.460938 163.945312 180.492188 C 164.183594 181.519531 164.535156 182.507812 165.003906 183.453125 C 165.46875 184.398438 166.035156 185.277344 166.703125 186.089844 C 167.371094 186.902344 168.121094 187.628906 168.957031 188.265625 L 175 182.164062 C 174.542969 181.957031 174.121094 181.6875 173.742188 181.355469 C 173.359375 181.027344 173.035156 180.648438 172.761719 180.222656 C 172.488281 179.796875 172.28125 179.339844 172.140625 178.855469 C 171.996094 178.367188 171.925781 177.871094 171.925781 177.367188 C 171.925781 174.460938 174.265625 172.105469 177.136719 172.105469 C 177.636719 172.105469 178.128906 172.175781 178.609375 172.320312 C 179.089844 172.464844 179.542969 172.675781 179.964844 172.949219 C 180.386719 173.222656 180.757812 173.554688 181.085938 173.9375 C 181.414062 174.320312 181.679688 174.746094 181.886719 175.207031 L 187.929688 169.105469 C 185.449219 165.808594 181.539062 163.679688 177.132812 163.679688 Z M 177.140625 163.675781 "/>
<g clip-path="url(#clip2)" clip-rule="nonzero">
<path style=" stroke:none;fill-rule:nonzero;fill:rgb(37.249756%,38.819885%,40.779114%);fill-opacity:1;" d="M 123.113281 217.597656 C 120.265625 217.597656 117.824219 216.578125 115.765625 214.546875 C 113.703125 212.511719 112.675781 210.0625 112.675781 207.210938 C 112.675781 204.359375 113.703125 201.910156 115.765625 199.878906 C 117.824219 197.84375 120.269531 196.824219 123.113281 196.824219 C 124.429688 196.804688 125.699219 197.042969 126.921875 197.539062 C 128.144531 198.035156 129.226562 198.75 130.164062 199.6875 L 128.179688 201.6875 C 127.5 201.027344 126.722656 200.519531 125.84375 200.167969 C 124.96875 199.816406 124.054688 199.648438 123.113281 199.660156 C 121.058594 199.660156 119.3125 200.394531 117.882812 201.867188 C 117.175781 202.574219 116.640625 203.390625 116.265625 204.320312 C 115.894531 205.246094 115.71875 206.210938 115.738281 207.210938 C 115.738281 209.308594 116.449219 211.085938 117.882812 212.554688 C 118.5625 213.277344 119.355469 213.828125 120.269531 214.214844 C 121.179688 214.597656 122.125 214.78125 123.113281 214.761719 C 125.203125 214.761719 126.933594 214.085938 128.308594 212.683594 C 129.113281 211.867188 129.652344 210.648438 129.839844 209.109375 L 123.117188 209.109375 L 123.117188 206.269531 L 132.578125 206.269531 C 132.675781 206.777344 132.710938 207.355469 132.710938 208.035156 C 132.710938 210.824219 131.902344 213.03125 130.277344 214.671875 C 128.433594 216.617188 126.046875 217.589844 123.097656 217.589844 Z M 145.09375 215.699219 C 143.804688 216.972656 142.234375 217.597656 140.378906 217.597656 C 138.523438 217.597656 136.949219 216.957031 135.664062 215.699219 C 134.378906 214.4375 133.734375 212.832031 133.734375 210.925781 C 133.734375 209.015625 134.378906 207.425781 135.664062 206.152344 C 136.949219 204.875 138.523438 204.253906 140.378906 204.253906 C 142.234375 204.253906 143.808594 204.890625 145.09375 206.152344 C 146.382812 207.410156 147.027344 209.019531 147.027344 210.925781 C 147.027344 212.828125 146.382812 214.421875 145.09375 215.699219 Z M 137.746094 213.828125 C 138.453125 214.605469 139.332031 214.988281 140.378906 214.976562 C 141.402344 214.976562 142.28125 214.59375 143.015625 213.824219 C 143.753906 213.054688 144.121094 212.089844 144.121094 210.921875 C 144.121094 209.742188 143.757812 208.769531 143.027344 208.007812 C 142.300781 207.246094 141.421875 206.867188 140.378906 206.867188 C 139.332031 206.851562 138.449219 207.230469 137.734375 208.007812 C 137.003906 208.765625 136.640625 209.738281 136.640625 210.921875 C 136.640625 212.085938 137.007812 213.054688 137.746094 213.824219 Z M 159.597656 215.699219 C 158.308594 216.972656 156.734375 217.597656 154.878906 217.597656 C 153.023438 217.597656 151.449219 216.957031 150.164062 215.699219 C 148.878906 214.4375 148.234375 212.832031 148.234375 210.925781 C 148.234375 209.015625 148.878906 207.425781 150.164062 206.152344 C 151.449219 204.875 153.023438 204.253906 154.878906 204.253906 C 156.734375 204.253906 158.308594 204.890625 159.597656 206.152344 C 160.882812 207.410156 161.527344 209.019531 161.527344 210.925781 C 161.527344 212.828125 160.882812 214.421875 159.597656 215.699219 Z M 152.246094 213.828125 C 152.953125 214.605469 153.832031 214.988281 154.882812 214.976562 C 155.902344 214.976562 156.78125 214.59375 157.515625 213.824219 C 158.253906 213.054688 158.621094 212.089844 158.621094 210.921875 C 158.621094 209.742188 158.257812 208.769531 157.53125 208.007812 C 156.800781 207.246094 155.921875 206.867188 154.882812 206.867188 C 153.832031 206.851562 152.949219 207.230469 152.234375 208.007812 C 151.503906 208.765625 151.140625 209.738281 151.140625 210.921875 C 151.140625 212.085938 151.507812 213.054688 152.246094 213.824219 Z M 169.128906 223.617188 C 167.65625 223.617188 166.417969 223.21875 165.417969 222.425781 C 164.414062 221.628906 163.695312 220.710938 163.261719 219.660156 L 165.796875 218.597656 C 166.0625 219.242188 166.464844 219.796875 167.046875 220.273438 C 167.628906 220.746094 168.308594 220.980469 169.132812 220.980469 C 170.234375 220.980469 171.101562 220.640625 171.726562 219.96875 C 172.351562 219.292969 172.667969 218.316406 172.667969 217.050781 L 172.667969 216.101562 L 172.566406 216.101562 C 171.761719 217.113281 170.582031 217.625 169.082031 217.625 C 167.390625 217.625 165.914062 216.972656 164.640625 215.671875 C 164.015625 215.054688 163.539062 214.332031 163.207031 213.515625 C 162.875 212.695312 162.71875 211.84375 162.734375 210.960938 C 162.71875 210.070312 162.875 209.210938 163.207031 208.386719 C 163.539062 207.5625 164.015625 206.835938 164.640625 206.210938 C 165.910156 204.902344 167.394531 204.246094 169.082031 204.246094 C 169.832031 204.246094 170.515625 204.390625 171.125 204.679688 C 171.734375 204.964844 172.214844 205.320312 172.566406 205.738281 L 172.667969 205.738281 L 172.667969 204.664062 L 175.429688 204.664062 L 175.429688 216.675781 C 175.429688 219.007812 174.839844 220.746094 173.660156 221.910156 C 172.476562 223.0625 170.96875 223.644531 169.128906 223.644531 Z M 169.328125 214.976562 C 169.8125 214.984375 170.277344 214.886719 170.71875 214.6875 C 171.160156 214.484375 171.539062 214.199219 171.851562 213.824219 C 172.53125 213.054688 172.867188 212.097656 172.867188 210.949219 C 172.867188 209.785156 172.53125 208.808594 171.851562 208.03125 C 171.539062 207.65625 171.164062 207.367188 170.722656 207.160156 C 170.28125 206.957031 169.816406 206.859375 169.328125 206.867188 C 168.308594 206.867188 167.4375 207.257812 166.722656 208.03125 C 166.003906 208.804688 165.640625 209.777344 165.640625 210.949219 C 165.640625 212.09375 166 213.054688 166.722656 213.824219 C 167.441406 214.59375 168.308594 214.976562 169.328125 214.976562 Z M 180.34375 197.53125 L 180.34375 217.195312 L 177.433594 217.195312 L 177.433594 197.53125 Z M 188.320312 217.59375 C 186.445312 217.59375 184.882812 216.953125 183.628906 215.667969 C 182.375 214.386719 181.746094 212.800781 181.746094 210.90625 C 181.746094 208.949219 182.347656 207.339844 183.5625 206.09375 C 184.136719 205.480469 184.8125 205.011719 185.582031 204.683594 C 186.351562 204.359375 187.15625 204.203125 187.992188 204.214844 C 188.792969 204.214844 189.539062 204.363281 190.222656 204.660156 C 190.867188 204.925781 191.4375 205.304688 191.929688 205.796875 C 192.339844 206.210938 192.699219 206.660156 193.007812 207.152344 C 193.265625 207.574219 193.484375 208.011719 193.660156 208.472656 L 193.964844 209.230469 L 185.109375 212.933594 C 185.78125 214.285156 186.855469 214.960938 188.320312 214.960938 C 189.660156 214.960938 190.75 214.347656 191.582031 213.113281 L 193.835938 214.636719 C 193.335938 215.394531 192.625 216.082031 191.707031 216.6875 C 190.785156 217.296875 189.652344 217.597656 188.316406 217.597656 Z M 184.632812 210.707031 L 190.539062 208.222656 C 190.371094 207.800781 190.066406 207.460938 189.601562 207.199219 C 189.125 206.929688 188.613281 206.800781 188.070312 206.808594 C 187.214844 206.808594 186.417969 207.160156 185.675781 207.871094 C 184.933594 208.578125 184.574219 209.527344 184.609375 210.707031 Z M 209.246094 217.59375 C 206.597656 217.59375 204.382812 216.691406 202.59375 214.882812 C 200.808594 213.074219 199.910156 210.820312 199.910156 208.117188 C 199.910156 205.414062 200.804688 203.160156 202.59375 201.355469 C 204.386719 199.546875 206.601562 198.640625 209.246094 198.640625 C 211.953125 198.640625 214.152344 199.632812 215.84375 201.605469 L 214.238281 203.179688 C 213.027344 201.640625 211.351562 200.871094 209.242188 200.871094 C 207.28125 200.871094 205.636719 201.539062 204.273438 202.875 C 202.914062 204.210938 202.253906 205.957031 202.253906 208.117188 C 202.253906 210.28125 202.925781 212.03125 204.273438 213.367188 C 205.621094 214.703125 207.273438 215.371094 209.242188 215.371094 C 211.398438 215.371094 213.238281 214.492188 214.746094 212.734375 L 216.351562 214.355469 C 215.5 215.382812 214.472656 216.171875 213.265625 216.726562 C 211.984375 217.320312 210.640625 217.609375 209.230469 217.597656 Z M 220.734375 217.195312 L 218.425781 217.195312 L 218.425781 199.050781 L 220.734375 199.050781 Z M 224.496094 206.261719 C 225.6875 205.007812 227.183594 204.375 229.039062 204.375 C 230.894531 204.375 232.390625 205.003906 233.578125 206.261719 C 234.769531 207.523438 235.363281 209.109375 235.363281 210.988281 C 235.363281 212.867188 234.769531 214.457031 233.578125 215.714844 C 232.390625 216.972656 230.894531 217.605469 229.039062 217.605469 C 227.183594 217.605469 225.6875 216.972656 224.496094 215.714844 C 223.308594 214.457031 222.714844 212.867188 222.714844 210.988281 C 222.714844 209.109375 223.304688 207.523438 224.496094 206.261719 Z M 226.214844 214.242188 C 227.023438 215.058594 227.953125 215.46875 229.035156 215.46875 C 230.117188 215.46875 231.050781 215.058594 231.855469 214.242188 C 232.660156 213.421875 233.046875 212.335938 233.046875 210.988281 C 233.046875 209.636719 232.648438 208.546875 231.855469 207.730469 C 231.0625 206.914062 230.117188 206.503906 229.035156 206.503906 C 227.953125 206.503906 227.023438 206.914062 226.214844 207.730469 C 225.410156 208.550781 225.023438 209.636719 225.023438 210.988281 C 225.023438 212.335938 225.421875 213.425781 226.214844 214.242188 Z M 248.128906 217.195312 L 245.921875 217.195312 L 245.921875 215.472656 L 245.820312 215.472656 C 245.472656 216.0625 244.933594 216.566406 244.214844 216.964844 C 243.496094 217.359375 242.738281 217.585938 241.933594 217.585938 C 240.394531 217.585938 239.230469 217.113281 238.433594 216.167969 C 237.640625 215.21875 237.242188 213.953125 237.242188 212.367188 L 237.242188 204.761719 L 239.550781 204.761719 L 239.550781 211.984375 C 239.550781 214.300781 240.5625 215.453125 242.585938 215.453125 C 243.046875 215.464844 243.484375 215.367188 243.894531 215.160156 C 244.308594 214.957031 244.648438 214.664062 244.921875 214.292969 C 245.535156 213.503906 245.835938 212.609375 245.824219 211.605469 L 245.824219 204.761719 L 248.132812 204.761719 L 248.132812 217.179688 Z M 255.957031 217.597656 C 254.367188 217.597656 252.992188 216.960938 251.839844 215.695312 C 250.691406 214.429688 250.113281 212.859375 250.113281 210.980469 C 250.113281 209.105469 250.691406 207.535156 251.839844 206.265625 C 252.992188 205 254.367188 204.367188 255.957031 204.367188 C 256.890625 204.367188 257.734375 204.570312 258.480469 204.972656 C 259.226562 205.375 259.78125 205.882812 260.148438 206.492188 L 260.25 206.492188 L 260.148438 204.773438 L 260.148438 199.046875 L 262.460938 199.046875 L 262.460938 217.195312 L 260.25 217.195312 L 260.25 215.472656 L 260.148438 215.472656 C 259.78125 216.078125 259.226562 216.585938 258.480469 216.992188 C 257.734375 217.390625 256.890625 217.59375 255.957031 217.59375 Z M 256.332031 215.46875 C 256.859375 215.472656 257.363281 215.371094 257.847656 215.160156 C 258.332031 214.949219 258.75 214.644531 259.105469 214.25 C 259.867188 213.441406 260.246094 212.347656 260.246094 210.996094 C 260.246094 209.644531 259.867188 208.539062 259.105469 207.742188 C 258.75 207.347656 258.332031 207.042969 257.847656 206.832031 C 257.363281 206.621094 256.859375 206.519531 256.332031 206.523438 C 255.261719 206.523438 254.339844 206.9375 253.570312 207.753906 C 252.800781 208.570312 252.417969 209.660156 252.417969 211.007812 C 252.417969 212.359375 252.800781 213.445312 253.570312 214.261719 C 253.921875 214.660156 254.339844 214.964844 254.820312 215.175781 C 255.300781 215.390625 255.804688 215.496094 256.332031 215.492188 Z M 256.332031 215.46875 "/>
</g>
</g>
</svg>
