<?xml version="1.0" encoding="UTF-8"?>
<svg xmlns="http://www.w3.org/2000/svg" xmlns:xlink="http://www.w3.org/1999/xlink" width="375pt" height="374.999991pt" viewBox="0 0 375 374.999991" version="1.2">
<defs>
<clipPath id="clip1">
  <path d="M 113 165.546875 L 149 165.546875 L 149 209.796875 L 113 209.796875 Z M 113 165.546875 "/>
</clipPath>
</defs>
<g id="surface1">
<rect x="0" y="0" width="375" height="374.999991" style="fill:rgb(100%,100%,100%);fill-opacity:1;stroke:none;"/>
<rect x="0" y="0" width="375" height="374.999991" style="fill:rgb(100%,100%,100%);fill-opacity:1;stroke:none;"/>
<g clip-path="url(#clip1)" clip-rule="nonzero">
<path style=" stroke:none;fill-rule:nonzero;fill:rgb(40.388489%,38.42926%,65.098572%);fill-opacity:1;" d="M 144.71875 209.492188 L 117.820312 209.492188 C 115.523438 209.492188 113.65625 207.597656 113.65625 205.261719 L 113.65625 169.351562 C 113.65625 167.015625 115.523438 165.117188 117.820312 165.117188 L 144.71875 165.117188 C 147.019531 165.117188 148.886719 167.015625 148.886719 169.351562 L 148.886719 205.253906 C 148.886719 207.585938 147.019531 209.484375 144.71875 209.484375 Z M 144.71875 209.492188 "/>
</g>
<path style=" stroke:none;fill-rule:nonzero;fill:rgb(100%,100%,100%);fill-opacity:1;" d="M 135.734375 203.390625 L 135.734375 185.765625 C 135.734375 185.765625 136.851562 181.550781 121.839844 187.488281 C 121.816406 187.578125 121.816406 171.195312 121.816406 171.195312 L 126.722656 171.160156 L 126.722656 181.65625 C 126.722656 181.65625 140.46875 176.144531 140.46875 185.828125 L 140.46875 203.390625 Z M 138.53125 177.5 L 133.324219 177.5 C 135.199219 175.175781 136.894531 171.1875 136.894531 171.1875 L 142.277344 171.1875 C 142.277344 171.1875 141.355469 173.785156 138.53125 177.5 Z M 121.894531 203.355469 L 121.894531 193.324219 L 126.835938 198.34375 L 121.894531 203.363281 Z M 121.894531 203.355469 "/>
</g>
</svg>
