<svg xmlns="http://www.w3.org/2000/svg" xmlns:xlink="http://www.w3.org/1999/xlink" viewBox="0 0 750 500"><defs><style>.cls-1{fill:none;}.cls-2{isolation:isolate;}.cls-3{fill:url(#radial-gradient);}.cls-4{clip-path:url(#clip-path);}.cls-5{fill:url(#linear-gradient);}.cls-6{fill:url(#linear-gradient-2);}.cls-7{fill:url(#linear-gradient-3);}.cls-8{fill:url(#linear-gradient-4);}.cls-9{fill:url(#linear-gradient-5);}.cls-10{fill:url(#linear-gradient-6);}.cls-11{fill:url(#linear-gradient-7);}.cls-12{fill:url(#linear-gradient-8);}.cls-13{fill:url(#linear-gradient-9);}.cls-14{fill:url(#linear-gradient-10);}.cls-15{fill:url(#linear-gradient-11);}.cls-16{fill:url(#linear-gradient-12);}.cls-17{fill:url(#linear-gradient-13);}.cls-18{fill:url(#linear-gradient-14);}.cls-19{fill:url(#linear-gradient-15);}.cls-20{fill:url(#linear-gradient-16);}.cls-21,.cls-27,.cls-29,.cls-30,.cls-31,.cls-52,.cls-58,.cls-65,.cls-73,.cls-81,.cls-82{opacity:0.56;}.cls-21,.cls-27,.cls-29,.cls-30,.cls-31,.cls-44,.cls-58,.cls-65,.cls-73,.cls-81,.cls-82{mix-blend-mode:overlay;}.cls-21{fill:url(#linear-gradient-17);}.cls-22{fill:url(#linear-gradient-18);}.cls-23{fill:url(#linear-gradient-19);}.cls-24{fill:url(#linear-gradient-20);}.cls-25{fill:#ff65eb;}.cls-26{fill:#ff20ce;}.cls-27{fill:url(#linear-gradient-21);}.cls-28,.cls-52{fill:#a5ffff;}.cls-29{fill:url(#linear-gradient-22);}.cls-30{fill:url(#linear-gradient-23);}.cls-31{fill:url(#linear-gradient-24);}.cls-32{fill:url(#linear-gradient-25);}.cls-33{fill:#193164;}.cls-34{fill:#1a6cbe;}.cls-35{fill:#102465;}.cls-36{fill:#00154f;}.cls-37{fill:url(#linear-gradient-26);}.cls-38,.cls-86{fill:#1a9bdb;}.cls-39{fill:#103450;}.cls-40{fill:#ffc6a0;}.cls-41{fill:#fdf7fb;}.cls-42{fill:#fff;}.cls-43,.cls-44,.cls-45{fill:#00edf9;}.cls-44,.cls-45,.cls-89{opacity:0.6;}.cls-46{fill:url(#linear-gradient-27);}.cls-47{fill:url(#linear-gradient-28);}.cls-48{fill:url(#linear-gradient-29);}.cls-49{fill:url(#linear-gradient-30);}.cls-50{fill:url(#linear-gradient-31);}.cls-51{fill:url(#linear-gradient-32);}.cls-53{fill:#b4ffff;}.cls-54{fill:#b8ffff;opacity:0.81;}.cls-55{fill:url(#linear-gradient-33);}.cls-56{fill:url(#linear-gradient-34);}.cls-57{fill:url(#linear-gradient-35);}.cls-58{fill:url(#linear-gradient-36);}.cls-59{fill:url(#linear-gradient-37);}.cls-60{fill:url(#linear-gradient-38);}.cls-61{fill:url(#linear-gradient-39);}.cls-62{fill:url(#linear-gradient-40);}.cls-63{fill:url(#linear-gradient-41);}.cls-64{fill:url(#linear-gradient-42);}.cls-65{fill:url(#linear-gradient-43);}.cls-66{fill:url(#linear-gradient-44);}.cls-67{fill:url(#linear-gradient-45);}.cls-68{fill:url(#linear-gradient-46);}.cls-69{fill:url(#linear-gradient-47);}.cls-70{fill:url(#linear-gradient-48);}.cls-71{fill:url(#linear-gradient-49);}.cls-72{fill:url(#linear-gradient-50);}.cls-73{fill:url(#linear-gradient-51);}.cls-74{fill:url(#linear-gradient-52);}.cls-75{fill:url(#linear-gradient-53);}.cls-76{fill:url(#linear-gradient-54);}.cls-77{fill:#162a56;}.cls-78{fill:url(#linear-gradient-55);}.cls-79{fill:#165da4;}.cls-80{opacity:0.3;}.cls-80,.cls-86{mix-blend-mode:multiply;}.cls-81{fill:url(#linear-gradient-56);}.cls-82{fill:url(#linear-gradient-57);}.cls-83{fill:url(#linear-gradient-58);}.cls-84{fill:url(#linear-gradient-59);}.cls-85{fill:url(#linear-gradient-60);}.cls-86{opacity:0.4;}.cls-87{fill:#011c63;}.cls-88{fill:#fcfefb;}.cls-90{fill:url(#linear-gradient-61);}.cls-91{fill:url(#linear-gradient-62);}.cls-92{fill:url(#linear-gradient-63);}.cls-93{fill:url(#linear-gradient-64);}</style><radialGradient id="radial-gradient" cx="601.67" cy="59.13" r="666.83" gradientUnits="userSpaceOnUse"><stop offset="0" stop-color="#00b3f4"/><stop offset="0.15" stop-color="#00abef"/><stop offset="0.39" stop-color="#0095e1"/><stop offset="0.69" stop-color="#0071ca"/><stop offset="0.99" stop-color="#0044ae"/></radialGradient><clipPath id="clip-path"><rect class="cls-1" width="750" height="500"/></clipPath><linearGradient id="linear-gradient" x1="233.77" y1="159.56" x2="229.39" y2="171.94" gradientUnits="userSpaceOnUse"><stop offset="0" stop-color="#89daf4"/><stop offset="1" stop-color="#008dd7"/></linearGradient><linearGradient id="linear-gradient-2" x1="231.61" y1="304.41" x2="245.35" y2="304.41" gradientUnits="userSpaceOnUse"><stop offset="0" stop-color="#144188"/><stop offset="1" stop-color="#1a7cde"/></linearGradient><linearGradient id="linear-gradient-3" x1="217.81" y1="304.41" x2="231.61" y2="304.41" gradientUnits="userSpaceOnUse"><stop offset="0" stop-color="#144188"/><stop offset="1" stop-color="#102465"/></linearGradient><linearGradient id="linear-gradient-4" x1="232.17" y1="208.3" x2="231.16" y2="365.65" gradientUnits="userSpaceOnUse"><stop offset="0" stop-color="#0276ce" stop-opacity="0"/><stop offset="0.06" stop-color="#0276ce" stop-opacity="0.16"/><stop offset="0.15" stop-color="#0276ce" stop-opacity="0.38"/><stop offset="0.25" stop-color="#0276ce" stop-opacity="0.57"/><stop offset="0.35" stop-color="#0276ce" stop-opacity="0.73"/><stop offset="0.45" stop-color="#0276ce" stop-opacity="0.85"/><stop offset="0.56" stop-color="#0276ce" stop-opacity="0.93"/><stop offset="0.68" stop-color="#0276ce" stop-opacity="0.98"/><stop offset="0.81" stop-color="#0276ce"/></linearGradient><linearGradient id="linear-gradient-5" x1="215.14" y1="216.61" x2="212.22" y2="224.88" xlink:href="#linear-gradient"/><linearGradient id="linear-gradient-6" x1="213.7" y1="313.5" x2="222.89" y2="313.5" xlink:href="#linear-gradient-2"/><linearGradient id="linear-gradient-7" x1="204.47" y1="313.5" x2="213.7" y2="313.5" xlink:href="#linear-gradient-3"/><linearGradient id="linear-gradient-8" x1="214.07" y1="249.21" x2="213.4" y2="354.47" gradientUnits="userSpaceOnUse"><stop offset="0" stop-color="#006ac6" stop-opacity="0"/><stop offset="0.05" stop-color="#006ac6" stop-opacity="0.13"/><stop offset="0.14" stop-color="#006bc6" stop-opacity="0.36"/><stop offset="0.24" stop-color="#006bc7" stop-opacity="0.56"/><stop offset="0.35" stop-color="#006bc7" stop-opacity="0.72"/><stop offset="0.45" stop-color="#006cc7" stop-opacity="0.84"/><stop offset="0.56" stop-color="#006cc7" stop-opacity="0.93"/><stop offset="0.68" stop-color="#006cc7" stop-opacity="0.98"/><stop offset="0.82" stop-color="#006cc7"/></linearGradient><linearGradient id="linear-gradient-9" x1="65.55" y1="362.59" x2="61.17" y2="374.97" xlink:href="#linear-gradient"/><linearGradient id="linear-gradient-10" x1="63.39" y1="470.5" x2="77.13" y2="470.5" xlink:href="#linear-gradient-2"/><linearGradient id="linear-gradient-11" x1="49.59" y1="470.5" x2="63.39" y2="470.5" xlink:href="#linear-gradient-3"/><linearGradient id="linear-gradient-12" x1="63.79" y1="398.25" x2="63.05" y2="514.85" gradientUnits="userSpaceOnUse"><stop offset="0" stop-color="#0044ae" stop-opacity="0"/><stop offset="0" stop-color="#0044ae" stop-opacity="0.01"/><stop offset="0.1" stop-color="#0044ae" stop-opacity="0.27"/><stop offset="0.21" stop-color="#0044ae" stop-opacity="0.5"/><stop offset="0.32" stop-color="#0044ae" stop-opacity="0.68"/><stop offset="0.43" stop-color="#0044ae" stop-opacity="0.82"/><stop offset="0.54" stop-color="#0044ae" stop-opacity="0.92"/><stop offset="0.67" stop-color="#0044ae" stop-opacity="0.98"/><stop offset="0.81" stop-color="#0044ae"/></linearGradient><linearGradient id="linear-gradient-13" x1="265.57" y1="208.33" x2="262.82" y2="216.1" xlink:href="#linear-gradient"/><linearGradient id="linear-gradient-14" x1="264.21" y1="299.28" x2="272.83" y2="299.28" xlink:href="#linear-gradient-2"/><linearGradient id="linear-gradient-15" x1="255.54" y1="299.28" x2="264.21" y2="299.28" xlink:href="#linear-gradient-3"/><linearGradient id="linear-gradient-16" x1="264.56" y1="238.93" x2="263.93" y2="337.73" xlink:href="#linear-gradient-4"/><linearGradient id="linear-gradient-17" x1="458.43" y1="81.7" x2="455.9" y2="444.44" gradientUnits="userSpaceOnUse"><stop offset="0.04" stop-color="#93fffd" stop-opacity="0"/><stop offset="0.14" stop-color="#95fffd" stop-opacity="0.07"/><stop offset="0.33" stop-color="#9bfefe" stop-opacity="0.25"/><stop offset="0.61" stop-color="#a4fdfe" stop-opacity="0.54"/><stop offset="0.95" stop-color="#b0fbff" stop-opacity="0.94"/><stop offset="1" stop-color="#b2fbff"/></linearGradient><linearGradient id="linear-gradient-18" x1="486.04" y1="183.28" x2="428.71" y2="345.39" xlink:href="#linear-gradient"/><linearGradient id="linear-gradient-19" x1="457.72" y1="447.48" x2="637.69" y2="447.48" xlink:href="#linear-gradient-2"/><linearGradient id="linear-gradient-20" x1="276.98" y1="447.48" x2="457.72" y2="447.48" xlink:href="#linear-gradient-3"/><linearGradient id="linear-gradient-21" x1="457.51" y1="131.99" x2="457.12" y2="173.85" xlink:href="#linear-gradient-17"/><linearGradient id="linear-gradient-22" x1="302.59" y1="221.28" x2="302.19" y2="263.14" xlink:href="#linear-gradient-17"/><linearGradient id="linear-gradient-23" x1="615.09" y1="221.28" x2="614.7" y2="263.14" xlink:href="#linear-gradient-17"/><linearGradient id="linear-gradient-24" x1="457.51" y1="308.78" x2="457.12" y2="350.64" xlink:href="#linear-gradient-17"/><linearGradient id="linear-gradient-25" x1="470.53" y1="195.52" x2="446.8" y2="338.53" gradientUnits="userSpaceOnUse"><stop offset="0" stop-color="#cdeffb"/><stop offset="1" stop-color="#89daf4"/></linearGradient><linearGradient id="linear-gradient-26" x1="353.49" y1="190.19" x2="486.04" y2="190.19" xlink:href="#linear-gradient-25"/><linearGradient id="linear-gradient-27" x1="411.42" y1="387.08" x2="384.25" y2="426.6" xlink:href="#linear-gradient-2"/><linearGradient id="linear-gradient-28" x1="397.16" y1="377.7" x2="335.41" y2="388.2" gradientUnits="userSpaceOnUse"><stop offset="0.15" stop-color="#144188"/><stop offset="1" stop-color="#1a7cde"/></linearGradient><linearGradient id="linear-gradient-29" x1="411.42" y1="442.72" x2="384.25" y2="482.24" xlink:href="#linear-gradient-2"/><linearGradient id="linear-gradient-30" x1="397.16" y1="433.34" x2="335.41" y2="443.84" xlink:href="#linear-gradient-28"/><linearGradient id="linear-gradient-31" x1="411.42" y1="498.36" x2="384.25" y2="537.88" xlink:href="#linear-gradient-2"/><linearGradient id="linear-gradient-32" x1="397.16" y1="488.98" x2="335.41" y2="499.48" xlink:href="#linear-gradient-28"/><linearGradient id="linear-gradient-33" x1="151.23" y1="246.7" x2="135.28" y2="291.79" xlink:href="#linear-gradient"/><linearGradient id="linear-gradient-34" x1="143.35" y1="415.91" x2="193.4" y2="415.91" xlink:href="#linear-gradient-2"/><linearGradient id="linear-gradient-35" x1="93.07" y1="415.91" x2="143.35" y2="415.91" xlink:href="#linear-gradient-3"/><linearGradient id="linear-gradient-36" x1="156.71" y1="146.3" x2="114.4" y2="265.93" xlink:href="#linear-gradient-17"/><linearGradient id="linear-gradient-37" x1="123.99" y1="390.15" x2="106.83" y2="389.81" xlink:href="#linear-gradient-2"/><linearGradient id="linear-gradient-38" x1="129" y1="463.41" x2="114.89" y2="463.13" xlink:href="#linear-gradient-2"/><linearGradient id="linear-gradient-39" x1="142.23" y1="540.76" x2="143.5" y2="365.1" gradientUnits="userSpaceOnUse"><stop offset="0" stop-color="#0044ae"/><stop offset="0.18" stop-color="#0044ae" stop-opacity="0.76"/><stop offset="0.46" stop-color="#0044ae" stop-opacity="0.44"/><stop offset="0.7" stop-color="#0044ae" stop-opacity="0.2"/><stop offset="0.89" stop-color="#0044ae" stop-opacity="0.05"/><stop offset="1" stop-color="#0044ae" stop-opacity="0"/></linearGradient><linearGradient id="linear-gradient-40" x1="679.3" y1="136.2" x2="670.87" y2="160.05" xlink:href="#linear-gradient"/><linearGradient id="linear-gradient-41" x1="675.14" y1="272.92" x2="701.62" y2="272.92" xlink:href="#linear-gradient-2"/><linearGradient id="linear-gradient-42" x1="648.54" y1="272.92" x2="675.14" y2="272.92" xlink:href="#linear-gradient-3"/><linearGradient id="linear-gradient-43" x1="682.2" y1="83.09" x2="659.82" y2="146.37" xlink:href="#linear-gradient-17"/><linearGradient id="linear-gradient-44" x1="673.8" y1="350.54" x2="676.35" y2="180.62" gradientUnits="userSpaceOnUse"><stop offset="0" stop-color="#0091de"/><stop offset="0.09" stop-color="#0092de" stop-opacity="0.96"/><stop offset="0.24" stop-color="#0093df" stop-opacity="0.86"/><stop offset="0.42" stop-color="#0096e1" stop-opacity="0.7"/><stop offset="0.63" stop-color="#0099e3" stop-opacity="0.47"/><stop offset="0.86" stop-color="#009de6" stop-opacity="0.19"/><stop offset="1" stop-color="#00a0e8" stop-opacity="0"/></linearGradient><linearGradient id="linear-gradient-45" x1="789.68" y1="170.4" x2="754.86" y2="268.87" xlink:href="#linear-gradient"/><linearGradient id="linear-gradient-46" x1="662.69" y1="400.07" x2="772.48" y2="400.07" xlink:href="#linear-gradient-3"/><linearGradient id="linear-gradient-47" x1="700.49" y1="345.93" x2="683.34" y2="345.59" xlink:href="#linear-gradient-2"/><linearGradient id="linear-gradient-48" x1="705.51" y1="419.19" x2="691.4" y2="418.91" xlink:href="#linear-gradient-2"/><linearGradient id="linear-gradient-49" x1="724.64" y1="359.71" x2="707.48" y2="359.37" xlink:href="#linear-gradient-2"/><linearGradient id="linear-gradient-50" x1="729.65" y1="432.97" x2="715.54" y2="432.69" xlink:href="#linear-gradient-2"/><linearGradient id="linear-gradient-51" x1="794.54" y1="15.97" x2="724.49" y2="214.03" xlink:href="#linear-gradient-17"/><linearGradient id="linear-gradient-52" x1="634.78" y1="350.06" x2="599.95" y2="448.54" xlink:href="#linear-gradient"/><linearGradient id="linear-gradient-53" x1="617.57" y1="509.57" x2="726.89" y2="509.57" xlink:href="#linear-gradient-2"/><linearGradient id="linear-gradient-54" x1="507.79" y1="509.57" x2="617.57" y2="509.57" xlink:href="#linear-gradient-3"/><linearGradient id="linear-gradient-55" x1="629.93" y1="360.54" x2="584.21" y2="453.35" xlink:href="#linear-gradient-25"/><linearGradient id="linear-gradient-56" x1="611.44" y1="293.03" x2="607.61" y2="408.74" xlink:href="#linear-gradient-17"/><linearGradient id="linear-gradient-57" x1="242.42" y1="277.42" x2="242.74" y2="418.49" xlink:href="#linear-gradient-17"/><linearGradient id="linear-gradient-58" x1="253.78" y1="346.16" x2="231.36" y2="409.56" xlink:href="#linear-gradient"/><linearGradient id="linear-gradient-59" x1="242.71" y1="475.7" x2="313.09" y2="475.7" xlink:href="#linear-gradient-2"/><linearGradient id="linear-gradient-60" x1="172.01" y1="475.7" x2="242.71" y2="475.7" xlink:href="#linear-gradient-3"/><linearGradient id="linear-gradient-61" x1="95.18" y1="432.55" x2="91.68" y2="442.44" xlink:href="#linear-gradient"/><linearGradient id="linear-gradient-62" x1="93.45" y1="518.81" x2="104.43" y2="518.81" xlink:href="#linear-gradient-2"/><linearGradient id="linear-gradient-63" x1="82.42" y1="518.81" x2="93.45" y2="518.81" xlink:href="#linear-gradient-3"/><linearGradient id="linear-gradient-64" x1="93.77" y1="461.05" x2="93.18" y2="554.26" xlink:href="#linear-gradient-12"/></defs><g class="cls-2"><g id="BACKGROUND"><rect class="cls-3" width="750" height="500"/></g><g id="OBJECTS"><g class="cls-4"><g class="cls-2"><polygon class="cls-5" points="245.35 165.76 231.61 173.73 217.81 165.76 231.61 157.78 245.35 165.76"/><polygon class="cls-6" points="245.35 165.76 245.35 435.08 231.61 443.06 231.61 173.73 245.35 165.76"/><polygon class="cls-7" points="231.61 173.73 231.61 443.06 217.81 435.08 217.81 165.76 231.61 173.73"/></g><polygon class="cls-8" points="231.61 157.78 217.81 165.76 217.81 435.08 231.61 443.06 245.35 435.08 245.35 165.76 231.61 157.78"/><g class="cls-2"><polygon class="cls-9" points="222.89 220.75 213.7 226.09 204.47 220.75 213.7 215.42 222.89 220.75"/><polygon class="cls-10" points="222.89 220.75 222.89 400.91 213.7 406.25 213.7 226.09 222.89 220.75"/><polygon class="cls-11" points="213.7 226.09 213.7 406.25 204.47 400.91 204.47 220.75 213.7 226.09"/></g><polygon class="cls-12" points="213.7 215.42 204.47 220.75 204.47 400.91 213.7 406.25 222.89 400.91 222.89 220.75 213.7 215.42"/><g class="cls-2"><polygon class="cls-13" points="77.13 368.79 63.39 376.77 49.59 368.79 63.39 360.82 77.13 368.79"/><polygon class="cls-14" points="77.13 368.79 77.13 564.23 63.39 572.2 63.39 376.77 77.13 368.79"/><polygon class="cls-15" points="63.39 376.77 63.39 572.2 49.59 564.23 49.59 368.79 63.39 376.77"/></g><polygon class="cls-16" points="63.39 360.82 49.59 368.79 49.59 564.23 63.39 572.2 77.13 564.23 77.13 368.79 63.39 360.82"/><g class="cls-2"><polygon class="cls-17" points="272.83 212.22 264.21 217.23 255.54 212.23 264.21 207.22 272.83 212.22"/><polygon class="cls-18" points="272.83 212.22 272.83 381.32 264.21 386.33 264.21 217.23 272.83 212.22"/><polygon class="cls-19" points="264.21 217.23 264.21 386.33 255.54 381.32 255.54 212.23 264.21 217.23"/></g><polygon class="cls-20" points="264.21 207.22 255.54 212.23 255.54 381.32 264.21 386.33 272.83 381.32 272.83 212.22 264.21 207.22"/><polygon class="cls-21" points="276.98 41.67 276.98 437.31 457.72 541.77 637.69 437.31 637.69 41.67 276.98 41.67"/><g class="cls-2"><polygon class="cls-22" points="637.69 264.46 457.72 368.93 276.98 264.46 457.72 159.99 637.69 264.46"/><polygon class="cls-23" points="637.69 264.46 637.69 526.02 457.72 630.49 457.72 368.93 637.69 264.46"/><polygon class="cls-24" points="457.72 368.93 457.72 630.49 276.98 526.02 276.98 264.46 457.72 368.93"/></g><polygon class="cls-25" points="457.72 388.7 637.69 284.23 637.69 282.45 457.72 386.92 457.72 388.7"/><polygon class="cls-26" points="276.98 284.24 457.72 388.7 457.72 386.92 276.98 282.45 276.98 284.24"/><polygon class="cls-27" points="443.29 124.91 450.43 175.72 458.03 180.11 465.59 175.72 471.86 124.91 443.29 124.91"/><polygon class="cls-28" points="450.43 175.72 457.99 171.33 465.59 175.72 458.03 180.11 450.43 175.72"/><polygon class="cls-29" points="288.37 214.19 295.51 265.01 303.11 269.4 310.67 265.01 316.94 214.19 288.37 214.19"/><polygon class="cls-28" points="295.51 265.01 303.06 260.62 310.67 265.01 303.11 269.4 295.51 265.01"/><polygon class="cls-30" points="600.87 214.19 608.01 265.01 615.61 269.4 623.17 265.01 629.44 214.19 600.87 214.19"/><polygon class="cls-28" points="608.01 265.01 615.57 260.62 623.17 265.01 615.61 269.4 608.01 265.01"/><polygon class="cls-31" points="443.29 301.69 450.43 352.51 458.03 356.9 465.59 352.51 471.86 301.69 443.29 301.69"/><polygon class="cls-28" points="450.43 352.51 457.99 348.12 465.59 352.51 458.03 356.9 450.43 352.51"/><path class="cls-32" d="M483.55,198.22a5.23,5.23,0,0,1,4.78,0l74.5,43.29c1.32.77,1.32,2,0,2.78L436.91,317a5.25,5.25,0,0,1-4.79,0l-74.49-43.29c-1.32-.77-1.32-2,0-2.77Z"/><path class="cls-33" d="M486.71,212.24a1.27,1.27,0,0,1-1.14,0l-5.2-3a.35.35,0,0,1,0-.66l5.24-3a1.27,1.27,0,0,1,1.14,0l5.2,3a.35.35,0,0,1,0,.66Zm-2.29,1.32a.35.35,0,0,0,0-.66l-5.2-3a1.27,1.27,0,0,0-1.14,0l-5.23,3a.35.35,0,0,0,0,.66l5.2,3a1.29,1.29,0,0,0,1.15,0Zm-7.53,4.35c.32-.19.31-.48,0-.66l-5.2-3a1.27,1.27,0,0,0-1.14,0l-5.23,3c-.32.19-.31.48,0,.66l5.2,3a1.21,1.21,0,0,0,1.14,0Zm30,0a.35.35,0,0,0,0-.66l-5.2-3a1.27,1.27,0,0,0-1.14,0l-5.24,3a.35.35,0,0,0,0,.66l5.2,3a1.21,1.21,0,0,0,1.14,0Zm-25,5.76,5.23-3a.35.35,0,0,0,0-.66l-5.2-3a1.24,1.24,0,0,0-1.14,0l-5.23,3a.35.35,0,0,0,0,.66l5.2,3A1.26,1.26,0,0,0,481.92,223.66Zm12.25-5.1a1.27,1.27,0,0,0-1.14,0l-5.23,3c-.32.18-.32.47,0,.66l5.21,3a1.27,1.27,0,0,0,1.14,0l5.23-3c.32-.19.32-.48,0-.66Zm-32.33,8a.35.35,0,0,0,0-.66l-5.2-3a1.27,1.27,0,0,0-1.14,0l-5.24,3a.35.35,0,0,0,0,.66l5.2,3a1.27,1.27,0,0,0,1.14,0Zm5,5.76,5.24-3a.35.35,0,0,0,0-.66l-5.2-3a1.27,1.27,0,0,0-1.14,0l-5.24,3a.35.35,0,0,0,0,.66l5.2,3A1.27,1.27,0,0,0,466.86,232.36Zm-12.55-1.42a.35.35,0,0,0,0-.66l-5.21-3a1.27,1.27,0,0,0-1.14,0l-5.23,3a.35.35,0,0,0,0,.66l5.21,3a1.27,1.27,0,0,0,1.14,0Zm23.63,3a1.27,1.27,0,0,0,1.14,0l5.23-3a.35.35,0,0,0,0-.66l-5.21-3a1.27,1.27,0,0,0-1.14,0l-5.23,3c-.31.18-.32.48,0,.66ZM453,233a.35.35,0,0,0,0,.66l5.2,3a1.27,1.27,0,0,0,1.14,0l5.23-3a.35.35,0,0,0,0-.66l-5.2-3a1.29,1.29,0,0,0-1.15,0Zm-6.21,2.26a.35.35,0,0,0,0-.66l-5.2-3a1.27,1.27,0,0,0-1.14,0l-5.24,3a.35.35,0,0,0,0,.66l5.2,3a1.27,1.27,0,0,0,1.14,0Zm23.62,3a1.27,1.27,0,0,0,1.14,0l5.24-3a.35.35,0,0,0,0-.66l-5.2-3a1.27,1.27,0,0,0-1.14,0l-5.24,3a.35.35,0,0,0,0,.66Zm41.27-.34c-.32.18-.31.47,0,.66l1.55.9a1.24,1.24,0,0,0,1.14,0l6.25-3.61a.35.35,0,0,0,0-.66l-1.56-.9a1.27,1.27,0,0,0-1.14,0Zm-66.21-.61c-.32.19-.31.48,0,.66l5.2,3a1.24,1.24,0,0,0,1.14,0l5.23-3c.32-.19.31-.48,0-.66l-5.2-3a1.27,1.27,0,0,0-1.14,0Zm18.6-1.41a1.23,1.23,0,0,0-1.15,0l-5.23,3a.35.35,0,0,0,0,.66l5.2,3a1.27,1.27,0,0,0,1.14,0l5.23-3a.35.35,0,0,0,0-.66ZM438,241.7c-.32.19-.32.48,0,.67l5.2,3a1.24,1.24,0,0,0,1.14,0l5.22-3c.33-.19.32-.48,0-.66l-5.2-3a1.26,1.26,0,0,0-1.15,0Zm40.33,1.38c.32-.18.33-.47,0-.66l-5.19-3a1.29,1.29,0,0,0-1.15,0l-5.23,3c-.31.18-.33.47,0,.66l5.19,3a1.21,1.21,0,0,0,1.14,0Zm-46.55.9a.35.35,0,0,0,0-.66l-5.2-3a1.21,1.21,0,0,0-1.14,0l-5.23,3c-.32.19-.32.49,0,.67l5.2,3a1.29,1.29,0,0,0,1.15,0Zm-1.32,2.08c-.31.18-.31.47,0,.66l5.2,3a1.27,1.27,0,0,0,1.14,0l5.24-3c.31-.19.31-.48,0-.66l-5.2-3a1.27,1.27,0,0,0-1.14,0Zm34,4.39a1.24,1.24,0,0,0,1.14,0l5.24-3a.35.35,0,0,0,0-.66l-5.19-3a1.24,1.24,0,0,0-1.14,0l-5.24,3a.35.35,0,0,0,0,.66Zm-40.18-2.13a.35.35,0,0,0,0-.66l-5.2-3a1.27,1.27,0,0,0-1.14,0l-5.24,3a.35.35,0,0,0,0,.66l5.2,3a1.27,1.27,0,0,0,1.14,0ZM449,244.63a1.26,1.26,0,0,0-1.15,0l-5.23,3a.35.35,0,0,0,0,.66l5.2,3a1.24,1.24,0,0,0,1.14,0l5.22-3c.33-.18.33-.48,0-.66Zm-26.13,5.77a.35.35,0,0,0,0,.66l5.2,3a1.27,1.27,0,0,0,1.14,0l5.23-3a.35.35,0,0,0,0-.66l-5.2-3a1.27,1.27,0,0,0-1.14,0Zm59.94,0c-.33.19-.32.48,0,.66l5.2,3a1.24,1.24,0,0,0,1.14,0l6.76-3.9a.35.35,0,0,0,0-.66l-5.21-3a1.27,1.27,0,0,0-1.14,0ZM441.48,249a1.27,1.27,0,0,0-1.14,0l-5.22,3c-.33.19-.33.49,0,.67l5.2,3a1.26,1.26,0,0,0,1.15,0l5.23-3a.35.35,0,0,0,0-.66Zm33.06,4.93a.35.35,0,0,0,0-.66l-5.19-3a1.24,1.24,0,0,0-1.14,0l-5.23,3c-.32.18-.33.48,0,.66l5.19,3a1.28,1.28,0,0,0,1.16,0Zm-59.17.83a.35.35,0,0,0,0,.66l5.2,3a1.27,1.27,0,0,0,1.14,0l5.24-3a.35.35,0,0,0,0-.66l-5.2-3a1.27,1.27,0,0,0-1.14,0ZM409.15,257a.35.35,0,0,0,0-.66l-5.2-3a1.27,1.27,0,0,0-1.14,0l-5.24,3a.35.35,0,0,0,0,.66l5.2,3a1.27,1.27,0,0,0,1.14,0ZM434,253.33a1.27,1.27,0,0,0-1.14,0l-5.24,3a.35.35,0,0,0,0,.66l5.2,3a1.27,1.27,0,0,0,1.14,0l5.23-3a.35.35,0,0,0,0-.66Zm-19.78,9.44,5.22-3c.33-.18.33-.48,0-.66l-5.2-3a1.26,1.26,0,0,0-1.15,0l-5.23,3a.35.35,0,0,0,0,.66l5.2,3A1.27,1.27,0,0,0,414.18,262.77Zm-12.56-1.41a.35.35,0,0,0,0-.66l-5.2-3a1.26,1.26,0,0,0-1.15,0l-5.22,3a.35.35,0,0,0,0,.66l5.2,3a1.24,1.24,0,0,0,1.14,0Zm24.81-3.69a1.27,1.27,0,0,0-1.14,0l-5.23,3a.35.35,0,0,0,0,.66l5.2,3a1.27,1.27,0,0,0,1.14,0l5.24-3a.35.35,0,0,0,0-.66Zm33.06,4.93a.35.35,0,0,0,0-.66l-5.2-3a1.24,1.24,0,0,0-1.14,0l-5.23,3c-.31.18-.33.48,0,.66l5.2,3a1.26,1.26,0,0,0,1.15,0Zm-59.17.83c-.33.19-.32.48,0,.66l5.2,3a1.29,1.29,0,0,0,1.15,0l5.22-3c.32-.19.31-.48,0-.66l-5.2-3a1.21,1.21,0,0,0-1.14,0Zm17.41,5.29a1.27,1.27,0,0,0,1.14,0l5.24-3a.35.35,0,0,0,0-.66l-5.2-3a1.27,1.27,0,0,0-1.14,0l-5.24,3a.35.35,0,0,0,0,.66Zm-6.35-2.36a1.26,1.26,0,0,0-1.15,0l-5.22,3c-.33.19-.32.48,0,.67l5.2,3a1.26,1.26,0,0,0,1.15,0l5.22-3c.32-.19.33-.48,0-.67Zm33.05,4.94c.33-.19.32-.48,0-.67l-5.19-3a1.29,1.29,0,0,0-1.15,0l-5.22,3c-.32.19-.34.48,0,.67l5.2,3a1.25,1.25,0,0,0,1.16,0Zm-74.17.83a.35.35,0,0,0,0,.66l5.2,3a1.29,1.29,0,0,0,1.15,0l10-5.76a.35.35,0,0,0,0-.66l-5.2-3a1.27,1.27,0,0,0-1.14,0Zm32.41,5.29a1.26,1.26,0,0,0,1.15,0l5.23-3c.31-.19.31-.48,0-.66l-5.2-3a1.27,1.27,0,0,0-1.14,0l-5.23,3c-.32.19-.32.48,0,.67Zm36.62-1.83c-.33.18-.33.48,0,.66l5.2,3a1.28,1.28,0,0,0,1.16,0l41.23-23.81a.35.35,0,0,0,0-.66l-5.2-3a1.27,1.27,0,0,0-1.14,0Zm-61.56.88a.35.35,0,0,0,0,.66l5.2,3a1.21,1.21,0,0,0,1.14,0l5.24-3a.35.35,0,0,0,0-.66l-5.2-3a1.27,1.27,0,0,0-1.14,0Zm34,4.4a1.27,1.27,0,0,0,1.14,0l5.23-3c.32-.19.33-.48,0-.67l-5.19-3a1.23,1.23,0,0,0-1.15,0l-5.23,3c-.31.18-.32.47,0,.66Zm17.68-.88c.32-.18.32-.48,0-.67l-5.19-3a1.27,1.27,0,0,0-1.14,0l-5.24,3c-.31.18-.33.47,0,.66l5.19,3a1.26,1.26,0,0,0,1.15,0Zm-44.17.83a.35.35,0,0,0,0,.66l5.21,3a1.27,1.27,0,0,0,1.14,0l10-5.76c.31-.18.32-.48,0-.66l-5.21-3a1.27,1.27,0,0,0-1.14,0Zm45,0a.35.35,0,0,0,0,.66l5.2,3a1.24,1.24,0,0,0,1.14,0l6.76-3.9a.35.35,0,0,0,0-.66l-5.2-3a1.27,1.27,0,0,0-1.14,0Zm-30.06,8.69c-.31.18-.33.47,0,.66l5.19,3a1.29,1.29,0,0,0,1.15,0l15.35-8.86c.31-.18.31-.48,0-.67l-5.19-3a1.24,1.24,0,0,0-1.14,0Zm15,0a.35.35,0,0,0,0,.66l5.2,3a1.27,1.27,0,0,0,1.14,0l5.23-3a.35.35,0,0,0,0-.66l-5.2-3a1.27,1.27,0,0,0-1.14,0Zm84.25-75.95a.35.35,0,0,0,0-.66l-5.2-3a1.27,1.27,0,0,0-1.14,0l-10,5.76c-.33.19-.32.48,0,.66l5.21,3a1.27,1.27,0,0,0,1.14,0Zm-30.06,8.69c.31-.18.32-.48,0-.66l-5.21-3a1.27,1.27,0,0,0-1.14,0l-5.23,3a.35.35,0,0,0,0,.66l5.21,3a1.21,1.21,0,0,0,1.14,0Zm5,5.76,5.23-3a.35.35,0,0,0,0-.66l-5.21-3a1.27,1.27,0,0,0-1.14,0l-5.23,3a.35.35,0,0,0,0,.66l5.21,3A1.27,1.27,0,0,0,474.39,228Zm40-5.76c.32-.19.33-.48,0-.66l-5.19-3a1.26,1.26,0,0,0-1.15,0L496.83,225c-.32.19-.33.48,0,.66l5.2,3a1.24,1.24,0,0,0,1.14,0Zm-28.9,7.36a1.24,1.24,0,0,0,1.14,0l5.23-3c.32-.19.31-.48,0-.66l-5.2-3a1.27,1.27,0,0,0-1.14,0l-5.23,3c-.32.19-.31.48,0,.66Zm15.4.43c.31-.18.32-.47,0-.66l-5.19-3a1.21,1.21,0,0,0-1.14,0l-5.24,3c-.31.18-.32.47,0,.66l5.19,3a1.27,1.27,0,0,0,1.14,0Zm-.27,1.49c-.31.18-.32.47,0,.66l5.17,3a1.27,1.27,0,0,0,1.14,0l14.92-8.61a.35.35,0,0,0,0-.66l-5.17-3a1.27,1.27,0,0,0-1.14,0Zm-7.27,2.86c.33-.18.33-.47,0-.66l-5.2-3a1.21,1.21,0,0,0-1.14,0l-5.22,3c-.32.19-.33.48,0,.66l5.19,3a1.21,1.21,0,0,0,1.14,0Zm14.8,1.51c-.32.19-.31.48,0,.66l1.54.9a1.26,1.26,0,0,0,1.15,0l6.25-3.61c.32-.18.32-.48,0-.67l-1.55-.9a1.27,1.27,0,0,0-1.14,0Zm-5.07,7c-.33.19-.32.48,0,.66l1.55.9a1.26,1.26,0,0,0,1.15,0l6.25-3.6c.31-.19.31-.48,0-.67l-1.54-.9a1.27,1.27,0,0,0-1.14,0ZM520.31,233c-.33.19-.32.48,0,.66l1.55.9a1.26,1.26,0,0,0,1.15,0l6.25-3.61c.31-.18.31-.48,0-.67l-1.54-.9a1.27,1.27,0,0,0-1.14,0Zm-15.69,3.53a.35.35,0,0,0,0-.66l-5.17-3a1.24,1.24,0,0,0-1.14,0l-5.23,3c-.32.18-.33.47,0,.66l5.17,3a1.27,1.27,0,0,0,1.14,0Zm-18.81,2.23a.35.35,0,0,0,0-.66l-5.19-3a1.24,1.24,0,0,0-1.14,0l-5.23,3c-.32.18-.33.48,0,.66l5.19,3a1.23,1.23,0,0,0,1.15,0Zm-46.56.9c.33-.19.33-.49,0-.67l-5.2-3a1.25,1.25,0,0,0-1.16,0l-5.22,3c-.33.19-.32.48,0,.66l5.2,3a1.24,1.24,0,0,0,1.14,0Zm51.49,4.25a1.26,1.26,0,0,0,1.15,0l5.05-2.92.15-.12a.35.35,0,0,0,0-.66l-5.17-3a1.27,1.27,0,0,0-1.14,0l-5.24,3c-.31.18-.32.47,0,.66Zm-34.2-3.6a1.27,1.27,0,0,0-1.14,0l-5.24,3a.35.35,0,0,0,0,.66l5.2,3a1.27,1.27,0,0,0,1.14,0l5.24-3a.35.35,0,0,0,0-.66Zm26.67,8a1.28,1.28,0,0,0,1.16,0l5.22-3c.32-.19.33-.49,0-.68l-5.19-3a1.26,1.26,0,0,0-1.15,0l-5.22,3c-.33.19-.33.47,0,.66Zm8.67-3c-.32.19-.31.48,0,.66l5.2,3a1.24,1.24,0,0,0,1.14,0l5.18-3a.35.35,0,0,0,0-.67l-5.2-3a1.28,1.28,0,0,0-1.16,0Zm-9.81,4.35c.32-.19.31-.48,0-.67l-5.19-3a1.21,1.21,0,0,0-1.14,0l-5.23,3c-.32.19-.33.48,0,.67l5.19,3a1.31,1.31,0,0,0,1.16,0Zm-25.21,5.22a1.24,1.24,0,0,0,1.14,0l5.23-3c.32-.18.33-.47,0-.66l-5.19-3a1.27,1.27,0,0,0-1.14,0l-5.24,3c-.31.18-.33.47,0,.66Zm-40.18-2.12a.35.35,0,0,0,0-.66l-5.2-3a1.27,1.27,0,0,0-1.14,0l-5.24,3a.35.35,0,0,0,0,.66l5.2,3a1.27,1.27,0,0,0,1.14,0Zm32.65,6.47a1.27,1.27,0,0,0,1.14,0l5.23-3c.32-.19.34-.48,0-.67l-5.19-3a1.26,1.26,0,0,0-1.15,0l-5.22,3c-.32.18-.33.47,0,.66Zm17.69-.88c.31-.18.31-.48,0-.67l-5.19-3a1.21,1.21,0,0,0-1.14,0l-5.24,3c-.31.18-.32.47,0,.66l5.19,3a1.29,1.29,0,0,0,1.15,0Zm-25.22,5.23a1.23,1.23,0,0,0,1.15,0l5.22-3c.33-.19.33-.48,0-.67l-5.19-3a1.21,1.21,0,0,0-1.14,0l-5.23,3c-.32.19-.34.48,0,.67Zm-7.53,4.34a1.24,1.24,0,0,0,1.14,0l5.24-3c.31-.18.33-.47,0-.66l-5.19-3a1.27,1.27,0,0,0-1.14,0l-5.23,3c-.32.18-.33.47,0,.66Zm-40.18-2.12a.35.35,0,0,0,0-.66l-5.2-3a1.27,1.27,0,0,0-1.14,0l-5.23,3c-.32.19-.32.49,0,.67l5.2,3a1.26,1.26,0,0,0,1.15,0ZM452,267c.32-.18.32-.48,0-.67l-5.19-3a1.26,1.26,0,0,0-1.15,0l-5.23,3c-.32.18-.32.47,0,.66l5.19,3a1.23,1.23,0,0,0,1.15,0Zm-52.83,4.51,5.23-3a.35.35,0,0,0,0-.66l-5.2-3a1.27,1.27,0,0,0-1.14,0l-5.23,3a.35.35,0,0,0,0,.66l5.2,3A1.26,1.26,0,0,0,399.13,271.46Zm27.62.72a1.27,1.27,0,0,0,1.14,0l5.24-3c.31-.18.32-.47,0-.66l-5.19-3a1.24,1.24,0,0,0-1.14,0l-5.24,3c-.31.18-.32.47,0,.66Zm-36.3,3.63a1.29,1.29,0,0,0,1.15,0l5.23-3a.35.35,0,0,0,0-.66l-5.2-3a1.27,1.27,0,0,0-1.14,0l-5.23,3a.35.35,0,0,0,0,.66Zm35.15-2.31c.31-.18.33-.48,0-.66l-5.19-3a1.24,1.24,0,0,0-1.14,0l-5.23,3c-.32.18-.33.48,0,.66l5.19,3a1.24,1.24,0,0,0,1.14,0Zm4.92,5.16a1.26,1.26,0,0,0,1.15,0l5.24-3a.35.35,0,0,0,0-.66l-5.19-3a1.24,1.24,0,0,0-1.14,0l-5.24,3a.35.35,0,0,0,0,.66Zm-37.83,6.51c-.31.18-.32.47,0,.66l5.19,3a1.24,1.24,0,0,0,1.14,0l11.52-6.65c.32-.18.33-.47,0-.66l-5.19-3a1.21,1.21,0,0,0-1.14,0Zm30,0c-.33.19-.33.49,0,.67l5.2,3a1.26,1.26,0,0,0,1.15,0l5.23-3a.35.35,0,0,0,0-.66l-5.2-3a1.27,1.27,0,0,0-1.14,0Zm21.3-1.64a.73.73,0,0,0,0,1.38L459.63,294a2.65,2.65,0,0,0,2.39,0l28.06-16.16a.73.73,0,0,0,0-1.38l-15.62-9.08a2.62,2.62,0,0,0-2.39,0Zm-36.36,10.33c-.32.19-.32.48,0,.67l5.2,3a1.27,1.27,0,0,0,1.14,0l5.24-3a.36.36,0,0,0,0-.67l-5.2-3a1.27,1.27,0,0,0-1.14,0Z"/><path class="cls-34" d="M483.48,108.76c2-1.14,3.6-.22,3.61,2.06l.24,87.55-130.7,75.46-.25-87.55a7.92,7.92,0,0,1,3.59-6.21Z"/><path class="cls-34" d="M563.82,242.9a1.7,1.7,0,0,1-1,1.39L436.91,317a5.25,5.25,0,0,1-4.79,0l-74.49-43.29-.21-.15a2.15,2.15,0,0,1-.24-.18,1.45,1.45,0,0,1-.27-.29l0-.06a1.53,1.53,0,0,1-.16-.31s0,0,0,0a1,1,0,0,1-.06-.35l0,5.52v0a1.23,1.23,0,0,0,0,.19.93.93,0,0,0,0,.13,0,0,0,0,0,0,0v0l.09.19a.86.86,0,0,1,.07.1l0,.05,0,.05a1.51,1.51,0,0,0,.21.23l0,0,.25.18.16.12,0,0,74.5,43.3a5.29,5.29,0,0,0,4.79,0L562.84,249.8a1.7,1.7,0,0,0,1-1.39Z"/><polygon class="cls-35" points="481.1 117.03 481.32 194.93 362.6 263.48 362.38 185.57 481.1 117.03"/><polygon class="cls-36" points="481.11 119.5 481.1 117.03 362.38 185.57 362.39 188.04 481.11 119.5"/><path class="cls-37" d="M484.27,108.41a3.3,3.3,0,0,1,.59-.13h.05a1.86,1.86,0,0,1,.58,0h0a1.91,1.91,0,0,1,.52.19l-2.9-1.73h0l-.18-.09-.19-.06a.5.5,0,0,0-.13,0h-.07l-.22,0h-.5l-.32.07-.14,0-.12,0-.16,0c-.17.07-.34.16-.51.25L357.07,178.34a6.2,6.2,0,0,0-.67.47,1.9,1.9,0,0,0-.21.19,4.15,4.15,0,0,0-.32.27l-.14.15-.12.13-.13.14-.29.36a.64.64,0,0,0-.1.13l0,.07-.09.12c-.08.1-.14.21-.21.31a3.21,3.21,0,0,0-.19.31v0l0,0-.14.25-.15.3c-.05.1-.09.19-.13.29h0v0c0,.1-.09.21-.14.32l-.12.34-.05.17,0,.07s0,.08,0,.12-.07.28-.1.42a1.87,1.87,0,0,0,0,.25l0,.13a.5.5,0,0,1,0,.12,5.48,5.48,0,0,0,0,.7l.24,85.15a4.18,4.18,0,0,0,2.09,3.61l.81.52-.25-87.55a5.93,5.93,0,0,1,.07-.83.5.5,0,0,0,0-.12c0-.26.11-.53.18-.79l0-.07a6.66,6.66,0,0,1,.31-.85v0a7.18,7.18,0,0,1,.42-.83v0c.16-.26.33-.52.51-.77l0-.06c.17-.23.35-.44.53-.64l.12-.12.45-.43.21-.18a7.51,7.51,0,0,1,.68-.47l123.51-71.31a3.78,3.78,0,0,1,.66-.3Z"/><path class="cls-38" d="M549.4,276a16.25,16.25,0,0,0-14.78,0c-4.09,2.37-4,6.2,0,8.57a16.28,16.28,0,0,0,14.78,0C553.52,282.19,553.5,278.37,549.4,276Z"/><path class="cls-39" d="M538.25,283s-3.7-2.4-3.8-3,.8-1.21,1.42-1.19,3.24.24,3.24.24l.84.95S541.45,283.63,538.25,283Z"/><path class="cls-39" d="M546.35,280s-3.7-2.41-3.8-3,.8-1.21,1.42-1.19,3.24.24,3.24.24l.84.95S549.55,280.61,546.35,280Z"/><path class="cls-39" d="M537,249.39l-.1,30.46a3.73,3.73,0,0,0,3.64-.08s3.44-26.31,3.5-26.94.49,24,.49,24a3.2,3.2,0,0,0,3.76-.44l1.92-29.15Z"/><path class="cls-40" d="M548.4,238.25l.21,5.35s4.2-2.22,4.09-5.46c0-.74-1.41-5.39-1.72-6.57C549.57,232.33,549.48,237.11,548.4,238.25Z"/><path class="cls-41" d="M540.07,226.63a9.59,9.59,0,0,0-3.58,2l.54,20.77s2.63,1.92,8,.52c4.36-1.15,5.51-3,5.51-3s-.1-9.62-.51-13.83a32.49,32.49,0,0,0-1.62-7.45,12.9,12.9,0,0,0-3.06-.16Z"/><path class="cls-40" d="M544.9,225.36l.12-4.06a1,1,0,0,0,.85-1.19c-.18-1.12-1.22-.39-1.41-.06,0,0-.23-3.85-2.27-4.22s-2.89-.07-2.94.92-.12,4.47,0,5.76,0,2,1.86,1.91l.16,1.35s.85.78,3.46.15Z"/><path class="cls-42" d="M540.07,226.63c0-.79.14-1.23,2-1.44s3.34-.7,3.53,0-.18,1.15-2,1.3S540.07,226.63,540.07,226.63Z"/><path class="cls-39" d="M542.48,220.22c.09-.31,0-.73-.35-.81a.65.65,0,0,0-.69.29,5.53,5.53,0,0,0-.68,1.38c-.18-.16-.38-.32-.57-.47l0-.36a3,3,0,0,0,0-.9c-.15-.62-.8-.72-1.11-1.19a1.94,1.94,0,0,1,.16-2.1,3.33,3.33,0,0,1,1.8-1.27c2.43-.8,6.07,1,5.36,3.94-.4,1.7-1,3.35-1.44,5-.06.22-.56.3-.78.24a1.54,1.54,0,0,1-.57-.38,8.84,8.84,0,0,1-2-2.55C541.7,221.17,542.44,220.35,542.48,220.22Z"/><path class="cls-40" d="M536.58,250.34a.57.57,0,0,0,.49.52c.3,0,.5-.3.63-.57s.16-.34.25-.51a.77.77,0,0,0,.12-.44c0-.15-.11-.28-.12-.43s.3-.48.38-.76-.15-.65-.38-.9a2.33,2.33,0,0,0-.51-.48c-.78-.5-1.49.39-1.34,1.16.07.34.3.65.4,1A13.52,13.52,0,0,1,536.58,250.34Z"/><path class="cls-40" d="M536.49,248.74s-4.52-6.94-4.65-8.49,3.74-9.7,3.74-9.7l3,3.32-3.36,6,1.9,6.73Z"/><path class="cls-41" d="M537.62,237.55a10.41,10.41,0,0,0,.73-2.53,10.08,10.08,0,0,0-1.86-6.4c-.85.39-2.21,3.22-3.42,6.35C534.55,235.9,536.07,236.75,537.62,237.55Z"/><path class="cls-41" d="M551.84,232.5c-1.15-3.32-2.65-6.59-3.44-6.86l.33,8.67C549.73,233.66,550.81,233.09,551.84,232.5Z"/><g class="cls-2"><path class="cls-43" d="M377.36,187.56a7.7,7.7,0,0,0-3.51,6.08c0,2.23,1.59,3.14,3.53,2a7.81,7.81,0,0,0,3.52-6.09c0-2.24-1.6-3.13-3.54-2"/><path class="cls-41" d="M419.57,164.26l-34.86,20.12a1.66,1.66,0,0,0-.75,1.31v.13c0,.48.34.67.75.43l34.86-20.12a1.62,1.62,0,0,0,.75-1.3v-.14c0-.48-.33-.68-.75-.43"/><path class="cls-41" d="M393.35,184.07l-8.63,5a1.69,1.69,0,0,0-.75,1.3v.13c0,.49.34.68.76.44l8.62-5a1.66,1.66,0,0,0,.76-1.31v-.13c0-.48-.35-.67-.76-.43"/><path class="cls-41" d="M419.53,169l-23,13.26a1.76,1.76,0,0,0-.81,1.4c0,.51.37.72.81.47l23-13.26a1.79,1.79,0,0,0,.81-1.4c0-.52-.37-.73-.81-.47"/><path class="cls-41" d="M389.44,191l-4.65,2.68a1.79,1.79,0,0,0-.81,1.4c0,.52.37.73.82.47l4.64-2.68a1.79,1.79,0,0,0,.81-1.41c0-.51-.37-.72-.81-.46"/><path class="cls-43" d="M377.41,205.92A7.75,7.75,0,0,0,373.9,212c0,2.24,1.59,3.14,3.53,2a7.77,7.77,0,0,0,3.52-6.08c0-2.24-1.6-3.13-3.54-2"/><path class="cls-41" d="M419.62,182.61l-34.86,20.13A1.69,1.69,0,0,0,384,204v.14c0,.48.34.67.76.43l34.86-20.12a1.68,1.68,0,0,0,.75-1.31v-.13c0-.48-.34-.68-.76-.44"/><path class="cls-41" d="M393.4,202.43l-8.63,5a1.65,1.65,0,0,0-.75,1.3v.13c0,.48.34.67.76.43l8.63-5a1.67,1.67,0,0,0,.75-1.3v-.13c0-.49-.34-.67-.76-.43"/><path class="cls-41" d="M419.58,187.31l-23,13.26a1.82,1.82,0,0,0-.81,1.4c0,.52.37.72.82.47l23-13.27a1.78,1.78,0,0,0,.8-1.4c0-.51-.36-.71-.81-.46"/><path class="cls-41" d="M389.49,209.35,384.85,212a1.76,1.76,0,0,0-.81,1.41c0,.52.36.72.81.46l4.64-2.68a1.76,1.76,0,0,0,.81-1.4c0-.51-.37-.72-.81-.47"/><path class="cls-43" d="M377.46,224.28a7.75,7.75,0,0,0-3.51,6.07c0,2.24,1.59,3.14,3.53,2a7.71,7.71,0,0,0,3.52-6.08c0-2.23-1.59-3.13-3.54-2"/><path class="cls-41" d="M419.67,201,384.81,221.1a1.67,1.67,0,0,0-.75,1.3v.14c0,.47.34.67.76.43l34.86-20.13a1.64,1.64,0,0,0,.75-1.3v-.14c0-.47-.34-.67-.76-.43"/><path class="cls-41" d="M393.45,220.78l-8.62,5a1.66,1.66,0,0,0-.76,1.31v.13c0,.48.35.67.76.43l8.63-5a1.67,1.67,0,0,0,.75-1.3v-.13c0-.49-.34-.68-.76-.44"/><path class="cls-41" d="M419.63,205.66l-23,13.26a1.84,1.84,0,0,0-.81,1.41c0,.52.37.72.82.46l23-13.26a1.78,1.78,0,0,0,.8-1.4c0-.51-.36-.73-.81-.47"/><path class="cls-41" d="M389.54,227.71l-4.64,2.68a1.79,1.79,0,0,0-.81,1.41c0,.51.36.72.81.46l4.65-2.68a1.79,1.79,0,0,0,.8-1.4c0-.52-.36-.73-.81-.47"/><path class="cls-43" d="M451.42,145.87l0,7.5c7.91-4.56,14.33-.89,14.36,8.19l6.53-3.78c0-13.22-9.39-18.56-20.91-11.91"/><path class="cls-41" d="M451.42,145.87c-11.51,6.64-20.81,22.76-20.77,36,0,6.62,2.36,11.27,6.15,13.42l4.6-8c-2.6-1.47-4.21-4.66-4.22-9.21,0-9.07,6.36-20.14,14.26-24.71l0-7.5"/><path class="cls-26" d="M472.33,157.78l-6.53,3.78c0,9.08-6.36,20.15-14.26,24.71-4,2.28-7.54,2.5-10.14,1l-4.6,8c3.78,2.16,9,1.83,14.76-1.49,11.51-6.65,20.81-22.76,20.77-36"/><path class="cls-41" d="M420.1,219.35l-37.92,21.9a1.64,1.64,0,0,0-.75,1.3v.14c0,.47.34.67.76.43l37.92-21.89a1.69,1.69,0,0,0,.76-1.31v-.14c0-.48-.35-.67-.77-.43"/><path class="cls-26" d="M376.21,244.7l-1.46.84a1.67,1.67,0,0,0-.75,1.3V247c0,.47.34.67.76.43l1.45-.84a1.66,1.66,0,0,0,.75-1.3v-.14c0-.48-.34-.67-.75-.43"/><path class="cls-41" d="M470.54,190.23l-37.92,21.9a1.67,1.67,0,0,0-.76,1.3v.14c0,.48.34.67.76.43l37.92-21.89a1.62,1.62,0,0,0,.75-1.31v-.13c0-.48-.33-.68-.75-.44"/><path class="cls-26" d="M426.64,215.58l-1.45.84a1.64,1.64,0,0,0-.75,1.3v.14c0,.47.33.67.75.43l1.45-.84a1.64,1.64,0,0,0,.75-1.3V216c0-.47-.33-.67-.75-.43"/></g><g class="cls-2"><path class="cls-44" d="M377.4,114.25l4.83-5.51c0-.13,0-.27,0-.41a6.2,6.2,0,0,1,2.8-4.85c1.55-.89,2.81-.17,2.81,1.61a6.17,6.17,0,0,1-2.79,4.84,2,2,0,0,1-2,.18l-4.83,5.51c0,.13,0,.27,0,.42a6.16,6.16,0,0,1-2.79,4.84,2.74,2.74,0,0,1-.89.34l-6.41,13.66a2.2,2.2,0,0,1,.51,1.55,6.13,6.13,0,0,1-2.79,4.84c-1.55.9-2.81.18-2.82-1.6a5.2,5.2,0,0,1,.32-1.69l-5.95-3.63a5.25,5.25,0,0,1-1.21,1,2.68,2.68,0,0,1-1.21.38l-5.91,10.48a2.52,2.52,0,0,1,.32,1.32,6.16,6.16,0,0,1-2.79,4.84c-1.55.89-2.81.17-2.81-1.61a6.14,6.14,0,0,1,2.79-4.84,2.6,2.6,0,0,1,1.21-.38l5.91-10.49a2.51,2.51,0,0,1-.32-1.31,6.13,6.13,0,0,1,2.79-4.84c1.55-.89,2.81-.17,2.82,1.6a5.2,5.2,0,0,1-.32,1.69l6,3.64a4.63,4.63,0,0,1,1.21-1,3,3,0,0,1,.89-.35l6.41-13.65a2.23,2.23,0,0,1-.51-1.56,6.13,6.13,0,0,1,2.79-4.83,2,2,0,0,1,2-.19m14.9-21.71-53.14,30.67a2.89,2.89,0,0,0-1.3,2.26l.11,37.11c0,.83.59,1.17,1.31.75l53.13-30.68a2.88,2.88,0,0,0,1.31-2.25l-.11-37.12c0-.82-.59-1.16-1.31-.74"/><path class="cls-28" d="M385,103.48a6.2,6.2,0,0,0-2.8,4.85c0,.14,0,.28,0,.41l-4.83,5.51a2,2,0,0,0-2,.19,6.13,6.13,0,0,0-2.79,4.83,2.23,2.23,0,0,0,.51,1.56l-6.41,13.65a3,3,0,0,0-.89.35,4.63,4.63,0,0,0-1.21,1l-6-3.64a5.2,5.2,0,0,0,.32-1.69c0-1.77-1.27-2.49-2.82-1.6a6.13,6.13,0,0,0-2.79,4.84,2.51,2.51,0,0,0,.32,1.31l-5.91,10.49a2.6,2.6,0,0,0-1.21.38,6.14,6.14,0,0,0-2.79,4.84c0,1.78,1.26,2.5,2.81,1.61a6.16,6.16,0,0,0,2.79-4.84,2.52,2.52,0,0,0-.32-1.32L355,135.75a2.68,2.68,0,0,0,1.21-.38,5.25,5.25,0,0,0,1.21-1l5.95,3.63a5.2,5.2,0,0,0-.32,1.69c0,1.78,1.27,2.5,2.82,1.6a6.13,6.13,0,0,0,2.79-4.84,2.2,2.2,0,0,0-.51-1.55l6.41-13.66a2.74,2.74,0,0,0,.89-.34A6.16,6.16,0,0,0,378.2,116c0-.15,0-.29,0-.42l4.83-5.51a2,2,0,0,0,2-.18,6.17,6.17,0,0,0,2.79-4.84c0-1.78-1.26-2.5-2.81-1.61"/></g><g class="cls-2"><path class="cls-45" d="M320,197.34c-.23.13-.42,0-.42-.24a.92.92,0,0,1,.42-.73l1.76-1c.24-.13.42,0,.42.24a.9.9,0,0,1-.41.72l-1.77,1m3.54-2.05c-.23.13-.42,0-.42-.24a.94.94,0,0,1,.42-.73l1.77-1c.23-.13.42,0,.42.24a.93.93,0,0,1-.41.73l-1.78,1M320,194c-.23.13-.42,0-.42-.24A.92.92,0,0,1,320,193l15.36-8.87c.23-.13.42,0,.42.24a.94.94,0,0,1-.42.73L320,194m0-3.38c-.23.14-.42,0-.42-.24a.9.9,0,0,1,.42-.72l8.62-5c.23-.14.42,0,.42.24a.9.9,0,0,1-.42.72l-8.62,5m10.42-6c-.23.13-.42,0-.42-.24a.92.92,0,0,1,.42-.73l1.07-.62c.23-.13.42,0,.42.24a.89.89,0,0,1-.42.72l-1.07.63m3-1.71c-.24.13-.42,0-.42-.24a.88.88,0,0,1,.41-.72l7-4.07c.23-.13.42,0,.42.24a.94.94,0,0,1-.42.73l-7,4.06M320,187.22c-.23.14-.42,0-.42-.24a.89.89,0,0,1,.42-.72l14.65-8.46c.23-.13.42,0,.42.24a.91.91,0,0,1-.42.72L320,187.22m16.48-9.51c-.23.13-.42,0-.42-.24a.94.94,0,0,1,.42-.73l3.93-2.27c.23-.13.42,0,.42.24a.94.94,0,0,1-.42.73l-3.93,2.27m-21.91,13.93c-.68.39-1.23.07-1.23-.71a2.72,2.72,0,0,1,1.22-2.12c.68-.39,1.23-.07,1.24.71a2.73,2.73,0,0,1-1.23,2.12m28.33-21.77L311.5,188a2.08,2.08,0,0,0-.95,1.64l0,15.28c0,.6.43.85,1,.54l31.38-18.12a2.11,2.11,0,0,0,1-1.65l-.05-15.27c0-.61-.43-.85-.95-.55"/><path class="cls-28" d="M334.64,177.8,320,186.26a.89.89,0,0,0-.42.72c0,.27.19.38.42.24l14.65-8.46a.91.91,0,0,0,.42-.72c0-.27-.19-.37-.42-.24"/><path class="cls-28" d="M328.62,184.65l-8.62,5a.9.9,0,0,0-.42.72c0,.27.19.38.42.24l8.62-5a.9.9,0,0,0,.42-.72c0-.27-.19-.38-.42-.24"/><path class="cls-28" d="M335.37,184.13,320,193a.92.92,0,0,0-.42.73c0,.26.19.37.42.24l15.36-8.87a.94.94,0,0,0,.42-.73c0-.27-.19-.37-.42-.24"/><path class="cls-28" d="M321.78,195.35l-1.76,1a.92.92,0,0,0-.42.73c0,.26.19.37.42.24l1.77-1a.9.9,0,0,0,.41-.72c0-.27-.18-.37-.42-.24"/><path class="cls-28" d="M331.49,183l-1.07.62a.92.92,0,0,0-.42.73c0,.26.19.37.42.24l1.07-.63a.89.89,0,0,0,.42-.72c0-.27-.19-.37-.42-.24"/><path class="cls-28" d="M340.41,177.84l-7,4.07a.88.88,0,0,0-.41.72c0,.27.18.37.42.24l7-4.06a.94.94,0,0,0,.42-.73c0-.26-.19-.37-.42-.24"/><path class="cls-28" d="M340.4,174.47l-3.93,2.27a.94.94,0,0,0-.42.73c0,.26.19.37.42.24l3.93-2.27a.94.94,0,0,0,.42-.73c0-.27-.19-.37-.42-.24"/><path class="cls-28" d="M314.55,188.81a2.72,2.72,0,0,0-1.22,2.12c0,.78.55,1.1,1.23.71a2.73,2.73,0,0,0,1.23-2.12c0-.78-.56-1.1-1.24-.71"/><path class="cls-28" d="M325.33,193.3l-1.77,1a.94.94,0,0,0-.42.73c0,.26.19.37.42.24l1.78-1a.93.93,0,0,0,.41-.73c0-.26-.19-.37-.42-.24"/></g><polygon class="cls-46" points="435.42 442.68 435.42 405.32 364.73 364.47 364.73 401.83 435.42 442.68"/><polygon class="cls-47" points="364.9 364.57 364.73 364.67 364.73 401.83 397.05 383.15 364.9 364.57"/><polygon class="cls-48" points="435.42 498.33 435.42 460.97 364.73 420.11 364.73 457.47 435.42 498.33"/><polygon class="cls-49" points="364.9 420.21 364.73 420.31 364.73 457.47 397.05 438.79 364.9 420.21"/><polygon class="cls-50" points="435.42 553.97 435.42 516.61 364.73 475.75 364.73 513.11 435.42 553.97"/><polygon class="cls-51" points="364.9 475.85 364.73 475.95 364.73 513.11 397.05 494.43 364.9 475.85"/><g class="cls-2"><polyline class="cls-52" points="596.16 162.39 545.2 132.97 545.11 163.09 596.08 192.52 596.16 162.39"/><polyline class="cls-52" points="596.76 196.31 565.14 178.05 565.11 189.24 596.73 207.5 596.76 196.31"/><polyline class="cls-52" points="588.38 136.16 578.64 130.53 578.61 141.72 588.35 147.35 588.38 136.16"/><path class="cls-52" d="M518.23,107.26s3.6-13.78,8.75-10.81,6.18,14.71,10.23,17,4.28-4.6,6.78-3.16,2.52,9.06,5.13,10.57,4.47-4.72,8.73-2.27c5.25,3,8.3,16.3,8.3,16.3l-47.92-27.67M569.68,111,514.85,79.32,514.76,112l54.83,31.65.09-32.69"/><path class="cls-53" d="M527,96.45c-5.15-3-8.75,10.81-8.75,10.81l47.92,27.67s-3-13.26-8.3-16.3c-4.26-2.45-6.12,3.78-8.73,2.27s-2.63-9.13-5.13-10.57-2.73,5.5-6.78,3.16-5.07-14.06-10.23-17"/><path class="cls-52" d="M525.61,150l0-5.26v-5.25l4,4.91,4,4.92-4,.34-4,.34m3.22-17.8c-6.89-4-12.5-.79-12.52,7.13s5.55,17.57,12.44,21.55,12.49.78,12.52-7.14-5.55-17.56-12.44-21.54"/><polyline class="cls-54" points="525.64 139.48 525.63 144.73 525.61 149.99 529.58 149.65 533.55 149.31 529.59 144.39 525.64 139.48"/><path class="cls-52" d="M515.27,170a6.14,6.14,0,0,1-2.78-4.83c0-1.78,1.26-2.5,2.8-1.61a6.14,6.14,0,0,1,2.79,4.84c0,1.77-1.26,2.49-2.81,1.6m19.52-1.78-31.24-18-.06,22.73,31.24,18-31.24-18v-3.49l5.79-3.3,5.87,10.17L527,169.55l7.73,13.39,0-14.71"/><polyline class="cls-53" points="527.02 169.55 515.16 176.3 509.29 166.13 503.5 169.43 503.49 172.92 534.73 190.96 534.75 182.94 527.02 169.55"/><path class="cls-53" d="M515.29,163.57c-1.54-.89-2.8-.17-2.8,1.61a6.14,6.14,0,0,0,2.78,4.83c1.55.89,2.81.17,2.81-1.6a6.14,6.14,0,0,0-2.79-4.84"/></g><g class="cls-2"><polygon class="cls-55" points="193.4 269.28 143.35 298.34 93.08 269.28 143.35 240.22 193.4 269.28"/><polygon class="cls-56" points="193.4 269.28 193.4 533.48 143.35 562.54 143.35 298.34 193.4 269.28"/><polygon class="cls-57" points="143.35 298.34 143.35 562.54 93.08 533.48 93.08 269.28 143.35 298.34"/></g><polygon class="cls-25" points="143.35 304.55 193.4 275.49 193.4 274.28 143.35 303.34 143.35 304.55"/><polygon class="cls-26" points="93.08 275.49 143.35 304.55 143.35 303.34 93.08 274.28 93.08 275.49"/><polygon class="cls-58" points="97.31 147.99 114.46 269.28 143.3 285.95 172.01 269.28 189.17 147.99 97.31 147.99"/><polygon class="cls-28" points="172.01 269.28 143.3 285.95 114.46 269.28 143.3 252.61 172.01 269.28"/><path class="cls-35" d="M176.13,187.61l-.57.34-1.34.78-.62.36-1.56.84-.4.22c-.65.34-1.32.68-2,1l-.52.25c-.52.25-1,.5-1.56.74l-.69.31-1.54.68-.62.26-2.18.88-.24.09-2,.74-.71.24-1.62.55-.72.23c-.84.27-1.7.53-2.56.78l-.27.08q-1.17.33-2.37.63l-.71.18c-.84.21-1.69.41-2.54.59l-.14,0c-.9.19-1.8.37-2.71.53l-.67.12c-1,.18-2.08.36-3.13.5l-.24,0c-1,.14-2,.26-3,.37l-.62.06c-.85.08-1.71.16-2.56.22h-.08c-.83.05-1.67.1-2.51.13l-.9,0c-.49,0-1,0-1.48,0h-1l-1.45,0-1,0-1.28,0L125,200.3l-1.29-.08-1-.08-1.28-.13-1.06-.11-1.3-.16-1-.14-1.54-.25-.86-.13-2-.38-.47-.09a18.29,18.29,0,0,1-3-9.84l0,8.08a18.29,18.29,0,0,0,3,9.84h.06l.4.08c.66.13,1.32.26,2,.37l.85.14c.52.09,1,.17,1.55.24l.23,0,.8.1,1.3.17,1,.11,1.28.12.35,0,.71,0,1.28.09,1.06.05,1.27,0,.46,0h3l1.47,0h.64l.27,0,2.52-.12h.06c.86-.06,1.72-.13,2.57-.21l.25,0,.36,0c1-.1,2-.22,3-.36l.24,0c1.05-.15,2.09-.32,3.13-.5l.34-.06.33-.06c.91-.17,1.81-.34,2.7-.54l.15,0c.85-.18,1.7-.38,2.54-.59l.71-.18c.79-.2,1.58-.41,2.37-.64l.27-.07c.86-.25,1.71-.51,2.56-.78l.27-.08.44-.15c.55-.18,1.09-.36,1.62-.55l.72-.25,2-.73.24-.1c.73-.28,1.46-.57,2.17-.87l.62-.27,1.55-.67.69-.31,1.56-.74.52-.25c.68-.33,1.34-.67,2-1l.4-.21c.53-.28,1-.56,1.56-.85l.62-.35,1.33-.78.38-.22.2-.13c.62-.37,1.23-.76,1.83-1.14l0-8.08C177.37,186.85,176.75,187.23,176.13,187.61Z"/><path class="cls-43" d="M178,186.46c-16.17,10.48-40.48,17.35-64.85,12.29-8.81-14.1,3-28.2,21-37.6l27.79,9.25Z"/><path class="cls-34" d="M173.07,186.14a84.62,84.62,0,0,1-25.84,10.14,79.09,79.09,0,0,1-31,.66c-3.19-5.8-2.84-11.84,1-17.95,3.4-5.37,9.4-10.53,17.42-15L159,172.08Z"/><polygon class="cls-41" points="153.64 183.42 153.65 186.86 129.43 186.86 129.38 177.64 135.32 177.64 135.35 183.42 153.64 183.42"/><polygon class="cls-59" points="124.18 316.71 110.11 308.58 110.11 463.31 124.18 471.44 124.18 316.71"/><polygon class="cls-60" points="110.11 463.31 124.18 471.44 124.18 455.18 110.11 463.31"/><polygon class="cls-61" points="143.35 298.34 93.08 269.28 93.08 533.48 143.35 562.54 193.4 533.48 193.4 269.28 143.35 298.34"/><g class="cls-2"><polygon class="cls-62" points="701.62 148.14 675.14 163.51 648.54 148.14 675.14 132.77 701.62 148.14"/><polygon class="cls-63" points="701.62 148.14 701.62 382.33 675.14 397.71 675.14 163.51 701.62 148.14"/><polygon class="cls-64" points="675.14 163.51 675.14 397.71 648.54 382.33 648.54 148.14 675.14 163.51"/></g><polygon class="cls-25" points="675.14 166.8 701.62 151.43 701.62 150.79 675.14 166.16 675.14 166.8"/><polygon class="cls-26" points="648.54 151.43 675.14 166.8 675.14 166.16 648.54 150.79 648.54 151.43"/><polygon class="cls-65" points="650.78 83.98 659.86 148.14 675.11 156.96 690.3 148.14 699.38 83.98 650.78 83.98"/><polygon class="cls-28" points="690.3 148.14 675.11 156.96 659.86 148.14 675.11 139.33 690.3 148.14"/><path class="cls-35" d="M692.48,104.94l-.31.18c-.23.14-.46.28-.7.41l-.33.19-.82.45-.21.11c-.35.19-.71.37-1.06.54l-.28.13c-.27.14-.55.27-.82.39l-.37.17-.82.35-.32.14-1.16.47-.12,0-1.06.39-.37.13-.86.29-.38.12-1.35.41-.14,0-1.26.34-.37.09-1.35.32H678c-.48.11-1,.2-1.44.29l-.35.06c-.55.1-1.1.19-1.65.26l-.13,0c-.54.07-1.07.14-1.61.19l-.33,0-1.35.11h0l-1.33.07h-.48l-.78,0h-1.82l-.67,0-.56,0-.68,0-.56,0-.68-.07-.55-.06-.69-.08-.55-.08-.82-.13-.45-.07-1-.2-.24,0a9.66,9.66,0,0,1-1.58-5.21l0,4.27a9.65,9.65,0,0,0,1.59,5.21h0l.21,0,1,.2.45.08.82.13h.12l.42.06.69.09.56,0,.68.07.18,0,.38,0,.68.05.55,0,.68,0h3.08c.45,0,.89,0,1.33-.07h0l1.35-.11h.14l.19,0c.54-.06,1.07-.12,1.6-.2h.13c.56-.08,1.11-.17,1.66-.27l.18,0,.17,0,1.43-.28.08,0,1.34-.32.38-.09,1.25-.34.15,0c.45-.13.9-.26,1.35-.41l.15,0,.23-.08.86-.29.37-.13,1-.39.13-.05,1.15-.46.33-.14.82-.36.36-.17.83-.38.27-.14,1.06-.53.22-.12c.27-.15.55-.29.82-.45l.33-.18.7-.42.2-.11.11-.07,1-.61v-4.27Z"/><path class="cls-43" d="M693.45,104.33a47.25,47.25,0,0,1-34.3,6.51c-4.67-7.46,1.57-14.92,11.11-19.89L685,95.84Z"/><path class="cls-34" d="M690.86,104.16a44.54,44.54,0,0,1-13.67,5.37,42,42,0,0,1-16.39.35c-1.69-3.07-1.51-6.27.54-9.5,1.81-2.84,5-5.57,9.22-7.94l12.87,4.29Z"/><polygon class="cls-41" points="680.58 102.72 680.59 104.55 667.77 104.55 667.75 99.67 670.89 99.67 670.91 102.72 680.58 102.72"/><polygon class="cls-66" points="691.16 142.07 699.38 83.98 650.78 83.98 659 142.1 648.54 148.14 648.54 382.33 675.14 397.71 701.62 382.33 701.62 148.14 691.16 142.07"/><g class="cls-2"><polygon class="cls-67" points="881.79 219.71 772.48 283.17 662.69 219.71 772.48 156.26 881.79 219.71"/><polygon class="cls-68" points="772.48 283.17 772.48 580.42 662.69 516.97 662.69 219.71 772.48 283.17"/></g><polygon class="cls-26" points="662.69 232.28 772.48 295.73 772.48 294.1 662.69 230.64 662.69 232.28"/><polygon class="cls-69" points="700.69 272.5 686.62 264.36 686.62 419.1 700.69 427.23 700.69 272.5"/><polygon class="cls-70" points="686.62 419.1 700.69 427.23 700.69 410.96 686.62 419.1"/><polygon class="cls-71" points="724.83 286.28 710.76 278.15 710.76 432.88 724.83 441.01 724.83 286.28"/><polygon class="cls-72" points="710.76 432.88 724.83 441.01 724.83 424.75 710.76 432.88"/><polygon class="cls-73" points="696.2 18.77 724.6 219.58 772.35 247.17 819.88 219.58 848.28 18.77 696.2 18.77"/><polygon class="cls-28" points="819.88 219.58 772.35 247.17 724.6 219.58 772.35 191.98 819.88 219.58"/><g class="cls-2"><polygon class="cls-74" points="726.88 399.38 617.57 462.83 507.79 399.38 617.57 335.92 726.88 399.38"/><polygon class="cls-75" points="726.88 399.38 726.88 556.31 617.57 619.76 617.57 462.83 726.88 399.38"/><polygon class="cls-76" points="617.57 462.83 617.57 619.76 507.79 556.31 507.79 399.38 617.57 462.83"/></g><polygon class="cls-25" points="617.57 475.4 726.88 411.94 726.88 410.3 617.57 473.76 617.57 475.4"/><polygon class="cls-26" points="507.79 411.94 617.57 475.4 617.57 473.76 507.79 410.3 507.79 411.94"/><g class="cls-2"><path class="cls-77" d="M670.51,382.81a1.9,1.9,0,0,1,0,.25,1.17,1.17,0,0,1-.05.2,2.17,2.17,0,0,1-.07.24,1.08,1.08,0,0,1-.08.19,1.89,1.89,0,0,1-.11.25,1.74,1.74,0,0,1-.11.18l-.18.27-.13.16a3.75,3.75,0,0,1-.34.36,1.59,1.59,0,0,1-.13.13,2.54,2.54,0,0,1-.24.2,1.84,1.84,0,0,1-.22.17l-.28.19-.3.19-66.73,38.78a12.33,12.33,0,0,1-11.16,0L559.6,406.82c-1.55-.9-2.33-2.08-2.32-3.26l0,4.08c0,1.18.78,2.35,2.33,3.25l30.75,17.76a12.33,12.33,0,0,0,11.16,0l66.73-38.78.09-.06.21-.13.28-.19.22-.18a2.31,2.31,0,0,0,.24-.2.1.1,0,0,0,.05,0l.08-.08c.12-.12.24-.24.34-.36l.07-.08.06-.08.18-.28s.06-.07.08-.11l0-.06c0-.09.08-.17.11-.25s.05-.09.07-.14a.43.43,0,0,1,0-.05,2.17,2.17,0,0,0,.07-.24s0-.1.05-.16v0a2.13,2.13,0,0,0,0-.25c0-.05,0-.11,0-.16v-4.15A1.64,1.64,0,0,1,670.51,382.81Z"/><path class="cls-78" d="M668.2,379.33c3.09,1.78,3.11,4.68,0,6.46l-66.73,38.78a12.33,12.33,0,0,1-11.16,0L559.6,406.82c-3.09-1.79-3.1-4.68,0-6.47l66.72-38.77a12.27,12.27,0,0,1,11.16,0Zm-68.29,44.31,66.73-38.77c2.18-1.27,2.17-3.35,0-4.62l-2.77-1.6-4.18.12-21.21-12.25.18-2.42-2.77-1.6a8.81,8.81,0,0,0-8,0l-66.72,38.78c-2.19,1.27-2.18,3.34,0,4.61l30.74,17.75a8.75,8.75,0,0,0,8,0"/><path class="cls-79" d="M666.61,380.25c2.2,1.28,2.21,3.35,0,4.62l-66.73,38.77a8.75,8.75,0,0,1-8,0L561.2,405.89c-2.21-1.27-2.22-3.34,0-4.61l66.72-38.78a8.81,8.81,0,0,1,8,0l2.77,1.6-.18,2.42,21.21,12.25,4.18-.12Z"/><path class="cls-79" d="M666.61,380.25c2.2,1.28,2.21,3.35,0,4.62l-66.73,38.77a8.75,8.75,0,0,1-8,0L561.2,405.89c-2.21-1.27-2.22-3.34,0-4.61l66.72-38.78a8.81,8.81,0,0,1,8,0l2.77,1.6-.18,2.42,21.21,12.25,4.18-.12Z"/></g><g class="cls-80"><path class="cls-38" d="M582.71,375.56c3.86,2.23,3.88,5.84,0,8.06a15.31,15.31,0,0,1-13.93,0c-3.86-2.23-3.9-5.84-.05-8.08A15.36,15.36,0,0,1,582.71,375.56Z"/></g><path class="cls-39" d="M570,377.27s-.55.07-.66.29a15.78,15.78,0,0,0-.15,2.3A14.61,14.61,0,0,0,572,382c1.37.7,2.56,1,3.09.55s.2-1-.93-1.92a11.54,11.54,0,0,1-2.22-3.37Z"/><path class="cls-39" d="M577.17,374.38s-.55.06-.66.28a15.78,15.78,0,0,0-.15,2.3,14.61,14.61,0,0,0,2.84,2.15c1.37.7,2.55,1,3.08.55s.21-1-.92-1.92a11.67,11.67,0,0,1-2.22-3.36Z"/><path class="cls-40" d="M581.15,347.73s0,.74-.07.87a9.39,9.39,0,0,0-.67,1.38.81.81,0,0,0,.32.56,4.74,4.74,0,0,0,.08.82c.07.14.7.05.76.09s.47.29.74.18,1-.35,1.1-.44a14.65,14.65,0,0,0-.17-4.11c-.11-.59-.63-14.09-.94-14C581.68,333.29,581.15,347.73,581.15,347.73Z"/><path class="cls-42" d="M583.12,334.7c-.28-1.33-.62-2.88-.91-3.95-.61-2.25-1.06-4-2.37-4l-.45,7.63s.14,1.15.38,2.46A23.79,23.79,0,0,0,583.12,334.7Z"/><path class="cls-39" d="M569.12,349.11l-.1,28.72a3.52,3.52,0,0,0,3.43-.07s3.25-24.82,3.31-25.41.46,22.66.46,22.66a3,3,0,0,0,3.55-.42l1.81-27.48Z"/><path class="cls-42" d="M572,327.64a15.81,15.81,0,0,0-4,2.35l1.18,19.12s2.48,1.81,7.53.48c4.12-1.07,5.2-2.81,5.2-2.81s.38-9.39,0-13.36a17.83,17.83,0,0,0-2-6.71,11.79,11.79,0,0,0-2.88-.15Z"/><path class="cls-39" d="M577.31,316a5.46,5.46,0,0,0-2.58-.21c-1.81.19-3.33,1.07-3.63,3a7.93,7.93,0,0,0,.89,4.26c.77,1.74,1.3,1.11,1.3,1.11l4.43-1.79a4.81,4.81,0,0,0,1.36-.58c.54-.47.36-1.28.46-1.92a3.26,3.26,0,0,0-.2-2.36,3.55,3.55,0,0,0-1.66-1.37Z"/><path class="cls-40" d="M572.82,326.72l-.12-3.83a.9.9,0,0,1-.8-1.13c.17-1.05,1.16-.36,1.33-.05,0,0,.22-3.63,2.15-4s3.78.06,3.83,1,.12,4.21,0,5.43-1.06,1.72-2.82,1.67l.12,2s-.88.64-3.34,0Z"/><path class="cls-42" d="M576.42,326.23a1.47,1.47,0,0,1,.47.07,2.36,2.36,0,0,1,.85,1.56,5.77,5.77,0,0,1-.3,1.66l-1.59-1.44-1,1.94a4.25,4.25,0,0,1-1.48-.77,5.67,5.67,0,0,1-1.38-1.61c.28-.7.47-1.11.47-1.11.06-.17.37-.24.37-.24a6.64,6.64,0,0,0,3,1.62S576.32,327.68,576.42,326.23Z"/><path class="cls-40" d="M569.11,350.41s.19.71.24.84.86.91.94,1.21a.84.84,0,0,1-.2.62,4.83,4.83,0,0,1,.09.82c0,.15-.67.19-.73.24s-.4.37-.69.32a11.42,11.42,0,0,1-1.16-.21,14.49,14.49,0,0,1-.67-4.06c0-.67.23-13.93.23-13.93.18,0,2.89,1.08,2.89,1.08Z"/><path class="cls-42" d="M570.21,338.3c0-1.67.1-3.5.08-3.94-.07-1.51-.07-5.74-2.35-4.37-.92.55-1.13,4.65-1.32,7.41A7,7,0,0,0,570.21,338.3Z"/><path class="cls-39" d="M579.33,319.21a1.37,1.37,0,0,0-.1-1.34,2.57,2.57,0,0,0-1.08-.88c-1.06-.51-4-1.07-4.08.76,0,.92.74,2.43,1.83,2.24.47-.08.74-.52,1.26-.37.26.07,1,.73,1,0A1,1,0,0,0,579.33,319.21Z"/><path class="cls-39" d="M572.62,321a2.84,2.84,0,0,1,1,1.82H574c0-.48,0-.91,0-1.4a3.31,3.31,0,0,0,.78-2.87c-.08-.41-.33-.87-.75-.9s-.75.37-.92.76A4.71,4.71,0,0,0,572.62,321Z"/><path class="cls-81" d="M539.71,263.88C540,282.47,559.57,404,559.57,404h0a3,3,0,0,0,1.6,1.93l30.74,17.75a8.75,8.75,0,0,0,8,0l66.73-38.77a2.82,2.82,0,0,0,1.63-2.29h0s11.32-74.51,16.84-118.7Z"/><g class="cls-2"><path class="cls-45" d="M631.37,386.12c-.43.25-.78.05-.78-.45a1.68,1.68,0,0,1,.78-1.34l3.81-2.21c.43-.25.78-.05.78.45a1.7,1.7,0,0,1-.78,1.35l-3.81,2.2m-19.2,7.3c-.43.25-.78.05-.78-.44a1.72,1.72,0,0,1,.78-1.34l6.35-3.67c.43-.24.77,0,.78.44a1.71,1.71,0,0,1-.77,1.34l-6.36,3.67m0-3.76c-.43.25-.78,0-.78-.44a1.7,1.7,0,0,1,.78-1.35l15.28-8.82c.42-.25.77-.05.77.45a1.68,1.68,0,0,1-.77,1.34l-15.28,8.82m18.3-10.56c-.43.25-.78,0-.78-.45a1.72,1.72,0,0,1,.78-1.35l4.7-2.71c.43-.25.78,0,.78.45a1.69,1.69,0,0,1-.78,1.34l-4.7,2.72m8.61,2.57,0-13.06,9.2-5.32,0,13.07-9.21,5.31m-26.92,4.22c-.43.25-.78.05-.78-.44a1.69,1.69,0,0,1,.78-1.34l4.7-2.71c.43-.25.78-.06.78.44a1.72,1.72,0,0,1-.78,1.34l-4.7,2.71m7.72-4.46c-.43.25-.78.05-.78-.43a1.72,1.72,0,0,1,.78-1.35l15.28-8.82c.43-.25.78-.05.78.45a1.69,1.69,0,0,1-.78,1.33l-15.28,8.82m-7.74-3.07c-.43.25-.78.05-.78-.44a1.7,1.7,0,0,1,.78-1.35l7.28-4.2c.44-.25.78-.05.79.44a1.72,1.72,0,0,1-.78,1.34l-7.29,4.21m0-3.77c-.43.25-.78.06-.78-.44a1.69,1.69,0,0,1,.78-1.34l28.47-16.44c.44-.25.78-.05.79.44a1.72,1.72,0,0,1-.78,1.34l-28.48,16.44m31.5-18.18c-.42.24-.78,0-.78-.45a1.7,1.7,0,0,1,.78-1.33l3.81-2.2c.43-.25.78-.06.78.43a1.7,1.7,0,0,1-.78,1.35l-3.81,2.2m-31.51,14.42c-.43.25-.78,0-.78-.44a1.71,1.71,0,0,1,.77-1.35l22.32-12.88c.43-.25.78-.05.78.44a1.73,1.73,0,0,1-.77,1.35l-22.32,12.88M637.82,356a.47.47,0,0,1-.77-.45,1.74,1.74,0,0,1,.77-1.35l9.6-5.54c.43-.25.78,0,.78.45a1.71,1.71,0,0,1-.78,1.35l-9.6,5.54M612.1,367.06c-.43.25-.78.05-.78-.44a1.71,1.71,0,0,1,.77-1.34l35.32-20.39c.43-.25.78-.05.78.44a1.72,1.72,0,0,1-.78,1.34L612.1,367.06m-.48-5.47,0-19.39,36.55-21.1.06,19.38-36.56,21.11m40.83-50.15-45.26,26.13a4.86,4.86,0,0,0-2.2,3.82l.18,63.39c0,1.41,1,2,2.22,1.27l45.26-26.13a4.86,4.86,0,0,0,2.2-3.82l-.18-63.39c0-1.41-1-2-2.22-1.27"/><polyline class="cls-28" points="648.12 321.1 611.57 342.2 611.62 361.59 648.17 340.48 648.12 321.1"/><path class="cls-28" d="M647.41,344.89l-35.32,20.39a1.71,1.71,0,0,0-.77,1.34c0,.49.35.69.78.44l35.31-20.39a1.72,1.72,0,0,0,.78-1.34c0-.49-.35-.69-.78-.44"/><path class="cls-28" d="M634.42,356.16,612.1,369a1.71,1.71,0,0,0-.77,1.35c0,.48.35.69.78.44L634.43,358a1.73,1.73,0,0,0,.77-1.35c0-.49-.35-.69-.78-.44"/><path class="cls-28" d="M647.42,348.65l-9.6,5.54a1.74,1.74,0,0,0-.77,1.35.47.47,0,0,0,.77.45l9.6-5.54a1.71,1.71,0,0,0,.78-1.35c0-.5-.35-.7-.78-.45"/><path class="cls-28" d="M640.59,356.37l-28.47,16.44a1.69,1.69,0,0,0-.78,1.34c0,.5.35.69.78.44l28.48-16.44a1.72,1.72,0,0,0,.78-1.34c0-.49-.35-.69-.79-.44"/><path class="cls-28" d="M647.43,352.43l-3.81,2.2a1.7,1.7,0,0,0-.78,1.33c0,.5.36.69.78.45l3.81-2.2a1.7,1.7,0,0,0,.78-1.35c0-.49-.35-.68-.78-.43"/><path class="cls-28" d="M619.41,372.37l-7.28,4.2a1.7,1.7,0,0,0-.78,1.35c0,.49.35.69.78.44l7.29-4.21a1.72,1.72,0,0,0,.78-1.34c0-.49-.35-.69-.79-.44"/><path class="cls-28" d="M635.16,374.59l-4.7,2.71a1.72,1.72,0,0,0-.78,1.35c0,.5.35.7.78.45l4.7-2.72a1.69,1.69,0,0,0,.78-1.34c0-.5-.35-.7-.78-.45"/><path class="cls-28" d="M627.44,379.05l-15.28,8.82a1.7,1.7,0,0,0-.78,1.35c0,.49.35.69.78.44l15.28-8.82a1.68,1.68,0,0,0,.77-1.34c0-.5-.35-.7-.77-.45"/><path class="cls-28" d="M635.18,382.12l-3.81,2.21a1.68,1.68,0,0,0-.78,1.34c0,.5.35.7.78.45l3.81-2.2a1.7,1.7,0,0,0,.78-1.35c0-.5-.35-.7-.78-.45"/><path class="cls-28" d="M618.52,388l-6.35,3.67a1.72,1.72,0,0,0-.78,1.34c0,.49.35.69.78.44l6.36-3.67a1.71,1.71,0,0,0,.77-1.34c0-.48-.35-.68-.78-.44"/><path class="cls-28" d="M616.85,381.4l-4.7,2.71a1.69,1.69,0,0,0-.78,1.34c0,.49.35.69.78.44l4.7-2.71a1.72,1.72,0,0,0,.78-1.34c0-.5-.35-.69-.78-.44"/><path class="cls-28" d="M635.15,370.83l-15.28,8.82a1.72,1.72,0,0,0-.78,1.35c0,.48.35.68.78.43l15.28-8.82a1.69,1.69,0,0,0,.78-1.33c0-.5-.35-.7-.78-.45"/><polyline class="cls-28" points="648.24 363.29 639.04 368.61 639.07 381.67 648.28 376.36 648.24 363.29"/></g><polygon class="cls-82" points="172.01 258.53 172.01 413.26 242.71 454.12 313.09 413.26 313.09 258.53 172.01 258.53"/><g class="cls-2"><polygon class="cls-83" points="313.09 377.91 242.71 418.76 172.01 377.91 242.71 337.05 313.09 377.91"/><polygon class="cls-84" points="313.09 377.91 313.09 532.64 242.71 573.5 242.71 418.76 313.09 377.91"/><polygon class="cls-85" points="242.71 418.76 242.71 573.5 172.01 532.64 172.01 377.91 242.71 418.76"/></g><polygon class="cls-25" points="242.71 427.5 313.09 386.64 313.09 384.94 242.71 425.8 242.71 427.5"/><polygon class="cls-26" points="172.01 386.64 242.71 427.5 242.71 425.8 172.01 384.94 172.01 386.64"/><path class="cls-86" d="M272.36,393.29a16.31,16.31,0,0,0-14.78,0c-4.09,2.37-4,6.21.05,8.57a16.22,16.22,0,0,0,14.78,0C276.47,399.48,276.45,395.65,272.36,393.29Z"/><path class="cls-39" d="M272.59,419.28s-.54.07-.64.27a14.71,14.71,0,0,0-.14,2.22,13.76,13.76,0,0,0,2.72,2.05c1.32.68,2.46,1,3,.53s.19-1-.89-1.84a11,11,0,0,1-2.13-3.23Z"/><path class="cls-39" d="M275.24,413.88s-.53-.07-.68.1a15.7,15.7,0,0,0-.71,2.1,13.6,13.6,0,0,0,2.12,2.69c1.1,1,2.12,1.56,2.73,1.26s.43-.88-.4-2a11.23,11.23,0,0,1-1.23-3.67Z"/><path class="cls-39" d="M257.75,391.8c0,2.51.28,6.48,1.57,7.37,2,1.35,10.06,7.56,10.06,7.56l2.2,12.78a2.77,2.77,0,0,0,3.5,0s-1.43-14.37-1.74-15.63-7.78-9.38-7.78-9.38Z"/><path class="cls-39" d="M264.52,390.49c-.67,2.41-1.14,5.26,0,6.38s13.45,4.87,13.45,4.87L274.29,414a2.76,2.76,0,0,0,3.39.89s6.54-14,6.56-15.26-12.35-7.28-12.35-7.28Z"/><g class="cls-2"><path class="cls-87" d="M284.24,395.71l-12,7a.12.12,0,0,0,.06-.12l12-7A.16.16,0,0,1,284.24,395.71Z"/><polygon class="cls-87" points="272.29 402.3 284.3 395.32 284.3 395.58 272.29 402.56 272.29 402.3"/><polygon class="cls-88" points="263.26 396.99 275.26 390.01 284.22 395.18 272.22 402.16 263.26 396.99"/><path class="cls-39" d="M281.58,394.84c.18.11.19.28,0,.39l-9,5.24a.72.72,0,0,1-.67,0l-3.41-2c-.18-.1-.17-.28,0-.38l9-5.24a.7.7,0,0,1,.66,0Z"/><path class="cls-88" d="M272.75,402.56l3.72-6.57,12-7-3.72,6.57a.1.1,0,0,1,0,.05l-12,7Z"/><path class="cls-88" d="M276.18,395.15l.1.1a.75.75,0,0,1,.19.74l-3.72,6.57c-.15.3-.55.17-.66.11l-8.42-4.86a.9.9,0,0,1-.41-.71V397l9,5.17Z"/><path class="cls-88" d="M276.18,395.15l12-7,.1.11a.72.72,0,0,1,.18.73l-12,7a.75.75,0,0,0-.19-.74Z"/></g><path class="cls-39" d="M275.09,393.08c.08,0,.08.12,0,.17l-3,1.73a.37.37,0,0,1-.29,0l-1.5-.86c-.08-.05-.07-.12,0-.17l3-1.73a.28.28,0,0,1,.28,0Z"/><path class="cls-40" d="M270.14,380s1.32,3.36,1.59,4.27,3.38,6.39,3.56,6.67a29.69,29.69,0,0,1,2.47,2.37.91.91,0,0,1-.91.88c-.74.08-2.7-1.34-2.7-1.34s-.5,1.26-.71-.26.39-1.28-.11-2.05c0,0-3.29-2.21-4.07-5a10.59,10.59,0,0,1-.09-5.2Z"/><path class="cls-88" d="M271.13,380.47c-.61-2.81-1.88-6.49-3.09-6.64l1.11,8A4.78,4.78,0,0,0,271.13,380.47Z"/><path class="cls-88" d="M260.5,374.72a15.1,15.1,0,0,0-3.88,2.26l1.13,16s2.38,1.74,7.23.47c3.95-1,5-2.7,5-2.7a116.23,116.23,0,0,0,0-11.66c-.37-3.81-1.92-5.26-1.92-5.26a11.33,11.33,0,0,0-2.76-.15Z"/><path class="cls-39" d="M265.86,363.85a9.57,9.57,0,0,0-5.05.3c-2.49.94-1,4.49-.3,6.16s1.24,1.07,1.24,1.07l5.44-2.19s.16-.17.05-2.44S265.86,363.85,265.86,363.85Z"/><path class="cls-40" d="M261.3,373.84l-.11-3.68a.86.86,0,0,1-.77-1.08c.16-1,1.11-.35,1.28-.05,0,0,.21-3.49,2.06-3.82s3.63.06,3.68,1,.11,4,0,5.21-1,1.65-2.71,1.6l.12,1.89s-.85.62-3.21.05Z"/><path class="cls-39" d="M264.76,373.37a1.26,1.26,0,0,1,.44.07,2.19,2.19,0,0,1,.82,1.49,5.34,5.34,0,0,1-.28,1.6l-1.53-1.38-1,1.85a3.78,3.78,0,0,1-1.42-.73,5.23,5.23,0,0,1-1.32-1.55c.26-.67.44-1.07.44-1.07s.36-.22.36-.22a6.46,6.46,0,0,0,2.91,1.55S264.66,374.76,264.76,373.37Z"/><path class="cls-88" d="M257.55,385.27c.48-1.24,1.56-4.25,1.27-5.82a3.16,3.16,0,0,0-2.2-2.47c-.77.87-1.87,3.74-2.61,6.15C255.2,383.82,256.36,384.57,257.55,385.27Z"/><path class="cls-39" d="M269.45,364.66a2.85,2.85,0,0,0-.52-1c-1.23-1.52-3-.63-4.63-.91a10.16,10.16,0,0,0-1.12-.27,2.63,2.63,0,0,0-2.46,1.42c-.07.17-.14.34-.21.53a2.92,2.92,0,0,0-.17.86,15.48,15.48,0,0,0,.33,1.78,7.38,7.38,0,0,0,1.06,2.61l.43-.11a2.26,2.26,0,0,1,.25-1.16,1.94,1.94,0,0,0,.19-1.82,2.5,2.5,0,0,0,2.23.34,3.69,3.69,0,0,1,2,.49,2.19,2.19,0,0,0,2,.07,1.91,1.91,0,0,0,.71-1.41A3.75,3.75,0,0,0,269.45,364.66Z"/><path class="cls-40" d="M255.11,383.78s-.83,4.25-.1,5.1,7.68,5,8.25,5.59,2.49,2.23,3.78,2.2,1.95,1.19,2.6,1.31.54-1.54.35-2.17-1.78-.9-1.78-.9,1.68-.82-.95-.48l-1.51-.25-7.68-7.36.15-1.26Z"/><g class="cls-89"><path class="cls-43" d="M222.1,364.92l0-7.35,5-2.89,0,7.35-5,2.89m19-11,0-11.07,5-2.88,0,11.06-5,2.89m-19,3.64,0-4.55,5-2.89v4.55l-5,2.89m9.54,1.85,0-12.88,5-2.88,0,12.88-5,2.88m19-11,0-17.44,5-2.88,0,17.43-5,2.89m-9.54-5.58,0-6.85,5-2.88,0,6.85-5,2.88m-9.52,3.68,0-8,5-2.89,0,8-5,2.88m19-15.54,0-10.79,5-2.88,0,10.79-5,2.88m-32.2,40.79c-.22.13-.4,0-.4-.22l-.1-34.73a.88.88,0,0,1,.4-.69c.22-.13.4,0,.4.23l.1,34.27,43.73-25.25c.23-.13.41,0,.41.23a.88.88,0,0,1-.41.69l-44.13,25.47m8.6-45.41c-.44.26-.79.05-.8-.45a1.76,1.76,0,0,1,.8-1.38l12.76-7.37c.44-.25.8-.05.8.46a1.74,1.74,0,0,1-.79,1.37L227,326.38m15.47-8.93c-.44.26-.8.05-.8-.45a1.76,1.76,0,0,1,.79-1.38l3-1.7c.44-.25.8-.05.8.46a1.79,1.79,0,0,1-.8,1.38l-2.94,1.69m-24.18,14.13v-2.16l4.79-2.77v2.16l-4.79,2.77m17.23-14.71a.59.59,0,0,1-.57.05.57.57,0,0,1-.23-.51l0-.2,0-.19.07-.2.1-.2a1.67,1.67,0,0,1,.57-.58.6.6,0,0,1,.57-.07l.09.08.07.12,0,.14,0,.18a1.62,1.62,0,0,1-.23.78,1.73,1.73,0,0,1-.57.6M227,321.79c-.44.25-.8,0-.8-.46A1.75,1.75,0,0,1,227,320l6.18-3.57c.44-.26.8-.05.8.45a1.76,1.76,0,0,1-.8,1.38L227,321.79m11-6.35c-.44.25-.8.05-.8-.46a1.79,1.79,0,0,1,.8-1.38l7.4-4.27c.44-.26.8-.05.8.46a1.72,1.72,0,0,1-.79,1.37L238,315.44M218.27,327v-2.15l4.79-2.77v2.16L218.27,327m47.67-36.16-51.89,30a5.27,5.27,0,0,0-2.4,4.14l.16,55.05c0,1.52,1.08,2.13,2.41,1.36l51.89-30a5.29,5.29,0,0,0,2.4-4.14l-.16-55c0-1.52-1.08-2.14-2.41-1.37"/><path class="cls-28" d="M218.29,336.15a.88.88,0,0,0-.4.69l.1,34.73c0,.25.18.35.4.22l44.13-25.47a.88.88,0,0,0,.41-.69c0-.26-.18-.36-.41-.23l-43.73,25.25-.1-34.27c0-.26-.18-.36-.4-.23"/><polyline class="cls-41" points="227.07 354.68 222.08 357.57 222.1 364.92 227.1 362.03 227.07 354.68"/><polyline class="cls-41" points="236.57 343.65 231.58 346.54 231.62 359.42 236.61 356.54 236.57 343.65"/><polyline class="cls-41" points="246.1 339.98 241.1 342.87 241.13 353.93 246.13 351.04 246.1 339.98"/><polyline class="cls-41" points="255.59 328.12 250.59 331 250.64 348.44 255.64 345.55 255.59 328.12"/><polyline class="cls-28" points="227.06 350.13 222.06 353.02 222.08 357.57 227.07 354.68 227.06 350.13"/><polyline class="cls-28" points="236.55 335.67 231.56 338.56 231.58 346.54 236.57 343.65 236.55 335.67"/><polyline class="cls-28" points="246.08 333.13 241.08 336.01 241.1 342.87 246.1 339.98 246.08 333.13"/><polyline class="cls-28" points="255.56 317.33 250.56 320.21 250.59 331 255.59 328.12 255.56 317.33"/><polyline class="cls-41" points="223.05 322.06 218.26 324.83 218.27 326.98 223.06 324.22 223.05 322.06"/><polyline class="cls-41" points="223.06 326.65 218.27 329.42 218.28 331.58 223.07 328.81 223.06 326.65"/><path class="cls-28" d="M233.16,316.39,227,320a1.75,1.75,0,0,0-.8,1.37c0,.51.36.71.8.46l6.18-3.57a1.76,1.76,0,0,0,.8-1.38c0-.5-.36-.71-.8-.45"/><path class="cls-28" d="M235.51,315a1.67,1.67,0,0,0-.57.58l-.1.2-.07.2,0,.19,0,.2a.57.57,0,0,0,.23.51.59.59,0,0,0,.57-.05,1.73,1.73,0,0,0,.57-.6,1.62,1.62,0,0,0,.23-.78l0-.18,0-.14-.07-.12-.09-.08a.6.6,0,0,0-.57.07"/><path class="cls-28" d="M245.38,309.33,238,313.6a1.79,1.79,0,0,0-.8,1.38c0,.51.36.71.8.46l7.41-4.28a1.72,1.72,0,0,0,.79-1.37c0-.51-.36-.72-.8-.46"/><path class="cls-28" d="M239.75,317.18,227,324.55a1.76,1.76,0,0,0-.8,1.38c0,.5.36.71.8.45L239.76,319a1.74,1.74,0,0,0,.79-1.37c0-.51-.36-.71-.8-.46"/><path class="cls-28" d="M245.4,313.92l-3,1.7a1.76,1.76,0,0,0-.79,1.38c0,.5.36.71.8.45l2.94-1.69a1.79,1.79,0,0,0,.8-1.38c0-.51-.36-.71-.8-.46"/></g><g class="cls-2"><polygon class="cls-90" points="104.43 437.5 93.45 443.88 82.42 437.5 93.45 431.13 104.43 437.5"/><polygon class="cls-91" points="104.43 437.5 104.43 593.74 93.45 600.12 93.45 443.88 104.43 437.5"/><polygon class="cls-92" points="93.45 443.88 93.45 600.12 82.42 593.74 82.42 437.5 93.45 443.88"/></g><polygon class="cls-93" points="93.45 431.13 82.42 437.5 82.42 593.74 93.45 600.12 104.43 593.74 104.43 437.5 93.45 431.13"/></g></g></g></svg>