<?xml version="1.0" encoding="UTF-8"?>
<svg xmlns="http://www.w3.org/2000/svg" xmlns:xlink="http://www.w3.org/1999/xlink" width="375pt" height="374.999991pt" viewBox="0 0 375 374.999991" version="1.2">
<defs>
<clipPath id="clip1">
  <path d="M 122 113 L 253 113 L 253 262.5 L 122 262.5 Z M 122 113 "/>
</clipPath>
</defs>
<g id="surface1">
<rect x="0" y="0" width="375" height="374.999991" style="fill:rgb(100%,100%,100%);fill-opacity:1;stroke:none;"/>
<rect x="0" y="0" width="375" height="374.999991" style="fill:rgb(100%,100%,100%);fill-opacity:1;stroke:none;"/>
<g clip-path="url(#clip1)" clip-rule="nonzero">
<path style=" stroke:none;fill-rule:nonzero;fill:rgb(54.899597%,75.289917%,24.308777%);fill-opacity:1;" d="M 171.40625 243.996094 C 167.570312 246.21875 166.84375 246.480469 163.238281 247.753906 C 162.367188 248.054688 161.046875 248.582031 163.738281 250.125 L 181.785156 260.945312 C 183.511719 261.957031 185.503906 262.488281 187.460938 262.488281 L 187.476562 262.5 C 189.460938 262.5 191.421875 261.964844 193.144531 260.957031 L 247.183594 229.355469 C 250.691406 227.285156 252.859375 223.457031 252.859375 219.367188 L 252.859375 156.207031 C 252.859375 152.085938 250.699219 148.257812 247.183594 146.214844 L 193.144531 114.585938 C 189.753906 112.628906 185.214844 112.628906 181.792969 114.585938 L 127.816406 146.183594 C 124.3125 148.230469 122.148438 152.085938 122.148438 156.175781 L 122.148438 219.335938 C 122.148438 223.457031 124.308594 227.285156 127.816406 229.324219 L 141.976562 237.597656 C 148.824219 241.039062 151.277344 241.039062 154.40625 241.039062 C 164.558594 241.039062 170.410156 234.816406 170.410156 223.964844 L 170.410156 161.578125 C 170.410156 160.691406 169.679688 160.007812 168.828125 160.007812 L 161.980469 160.007812 C 161.105469 160.007812 160.402344 160.6875 160.402344 161.578125 L 160.402344 223.9375 C 160.402344 228.765625 155.484375 233.539062 147.4375 229.480469 L 132.636719 220.824219 C 132.117188 220.554688 131.792969 219.964844 131.792969 219.367188 L 131.792969 156.207031 C 131.792969 155.589844 132.117188 154.992188 132.640625 154.691406 L 186.617188 123.09375 C 187.109375 122.792969 187.785156 122.792969 188.285156 123.09375 L 242.289062 154.660156 C 242.8125 154.984375 243.136719 155.550781 243.136719 156.175781 L 243.136719 219.367188 C 243.136719 219.953125 242.820312 220.550781 242.320312 220.847656 L 188.285156 252.449219 C 187.816406 252.746094 187.113281 252.746094 186.617188 252.449219 L 172.75 244.121094 C 172.339844 243.851562 171.816406 243.757812 171.40625 243.996094 Z M 171.40625 243.996094 "/>
</g>
<path style=" stroke:none;fill-rule:nonzero;fill:rgb(54.899597%,75.289917%,24.308777%);fill-opacity:1;" d="M 204.144531 209.402344 C 189.839844 209.402344 186.703125 205.753906 185.65625 198.554688 C 185.539062 197.78125 184.898438 197.222656 184.109375 197.222656 L 177.117188 197.222656 C 176.242188 197.222656 175.570312 197.929688 175.570312 198.789062 C 175.570312 208.007812 180.511719 219.007812 204.175781 219.007812 C 221.253906 218.976562 231.09375 212.136719 231.09375 200.214844 L 231.074219 200.222656 C 231.074219 188.394531 223.175781 185.253906 206.589844 183.03125 C 189.796875 180.777344 188.105469 179.621094 188.105469 175.648438 C 188.105469 172.363281 189.542969 167.976562 201.972656 167.976562 C 213.0625 167.976562 217.15625 170.402344 218.851562 177.988281 C 218.992188 178.707031 219.640625 179.234375 220.375 179.234375 L 227.394531 179.234375 C 227.832031 179.234375 228.242188 179.058594 228.535156 178.730469 C 228.828125 178.402344 228.972656 177.957031 228.945312 177.515625 C 227.863281 164.445312 219.292969 158.371094 201.972656 158.371094 C 186.554688 158.371094 177.367188 164.957031 177.367188 176.003906 C 177.367188 187.980469 186.523438 191.304688 201.296875 192.777344 C 219 194.53125 220.371094 197.164062 220.371094 200.695312 C 220.382812 206.800781 215.527344 209.402344 204.144531 209.402344 Z M 204.144531 209.402344 "/>
</g>
</svg>
