<?xml version="1.0" encoding="UTF-8"?>
<svg xmlns="http://www.w3.org/2000/svg" xmlns:xlink="http://www.w3.org/1999/xlink" width="375pt" height="374.999991pt" viewBox="0 0 375 374.999991" version="1.2">
<defs>
<clipPath id="clip1">
  <path d="M 112.5 120 L 262.5 120 L 262.5 254 L 112.5 254 Z M 112.5 120 "/>
</clipPath>
</defs>
<g id="surface1">
<rect x="0" y="0" width="375" height="374.999991" style="fill:rgb(100%,100%,100%);fill-opacity:1;stroke:none;"/>
<rect x="0" y="0" width="375" height="374.999991" style="fill:rgb(100%,100%,100%);fill-opacity:1;stroke:none;"/>
<g clip-path="url(#clip1)" clip-rule="nonzero">
<path style=" stroke:none;fill-rule:nonzero;fill:rgb(0%,84.709167%,100%);fill-opacity:1;" d="M 235.726562 164.023438 C 234.175781 163.488281 232.570312 162.984375 230.910156 162.507812 C 231.183594 161.394531 231.433594 160.300781 231.65625 159.222656 C 235.300781 141.53125 232.917969 127.28125 224.773438 122.589844 C 216.964844 118.089844 204.191406 122.78125 191.292969 133.996094 C 190.054688 135.074219 188.808594 136.214844 187.570312 137.414062 C 186.738281 136.621094 185.914062 135.855469 185.089844 135.125 C 171.574219 123.132812 158.023438 118.078125 149.886719 122.785156 C 142.085938 127.296875 139.777344 140.695312 143.058594 157.460938 C 143.375 159.078125 143.746094 160.734375 144.164062 162.414062 C 142.25 162.957031 140.398438 163.539062 138.625 164.15625 C 122.777344 169.675781 112.65625 178.328125 112.65625 187.300781 C 112.65625 196.566406 123.523438 205.867188 140.027344 211.507812 C 141.332031 211.949219 142.683594 212.371094 144.074219 212.769531 C 143.625 214.585938 143.230469 216.367188 142.902344 218.109375 C 139.769531 234.582031 142.214844 247.664062 149.996094 252.144531 C 158.03125 256.777344 171.519531 252.015625 184.652344 240.546875 C 185.691406 239.640625 186.734375 238.679688 187.773438 237.671875 C 189.132812 238.96875 190.480469 240.203125 191.820312 241.359375 C 204.542969 252.296875 217.109375 256.710938 224.878906 252.21875 C 232.90625 247.574219 235.523438 233.519531 232.128906 216.425781 C 231.875 215.117188 231.570312 213.785156 231.234375 212.429688 C 232.183594 212.148438 233.113281 211.855469 234.019531 211.558594 C 251.179688 205.875 262.34375 196.695312 262.34375 187.300781 C 262.34375 178.292969 251.894531 169.585938 235.726562 164.023438 Z M 232.007812 205.496094 C 231.1875 205.761719 230.347656 206.027344 229.492188 206.277344 C 227.597656 200.289062 225.042969 193.914062 221.910156 187.332031 C 224.898438 180.90625 227.351562 174.617188 229.195312 168.664062 C 230.726562 169.105469 232.210938 169.574219 233.644531 170.066406 C 247.496094 174.828125 255.945312 181.875 255.945312 187.300781 C 255.945312 193.082031 246.824219 200.585938 232.007812 205.496094 Z M 225.855469 217.664062 C 227.359375 225.222656 227.570312 232.058594 226.574219 237.40625 C 225.6875 242.207031 223.890625 245.40625 221.675781 246.6875 C 216.957031 249.414062 206.871094 245.871094 195.996094 236.515625 C 194.746094 235.441406 193.488281 234.296875 192.230469 233.085938 C 196.445312 228.476562 200.660156 223.121094 204.777344 217.167969 C 212.011719 216.53125 218.847656 215.480469 225.050781 214.046875 C 225.355469 215.28125 225.621094 216.484375 225.855469 217.664062 Z M 163.691406 246.214844 C 159.082031 247.84375 155.410156 247.890625 153.191406 246.613281 C 148.472656 243.890625 146.507812 233.386719 149.183594 219.300781 C 149.492188 217.6875 149.855469 216.027344 150.277344 214.332031 C 156.410156 215.6875 163.195312 216.664062 170.449219 217.25 C 174.59375 223.074219 178.929688 228.425781 183.296875 233.109375 C 182.34375 234.035156 181.390625 234.910156 180.445312 235.734375 C 174.640625 240.808594 168.820312 244.410156 163.691406 246.214844 Z M 142.097656 205.460938 C 134.800781 202.964844 128.773438 199.730469 124.640625 196.1875 C 120.929688 193.015625 119.054688 189.859375 119.054688 187.300781 C 119.054688 181.859375 127.179688 174.910156 140.734375 170.1875 C 142.378906 169.613281 144.097656 169.074219 145.886719 168.566406 C 147.757812 174.65625 150.214844 181.023438 153.179688 187.453125 C 150.175781 193.984375 147.683594 200.453125 145.792969 206.617188 C 144.519531 206.25 143.285156 205.863281 142.097656 205.460938 Z M 149.335938 156.234375 C 146.523438 141.867188 148.390625 131.03125 153.09375 128.3125 C 158.101562 125.417969 169.175781 129.546875 180.84375 139.902344 C 181.589844 140.5625 182.339844 141.253906 183.09375 141.972656 C 178.742188 146.636719 174.445312 151.949219 170.339844 157.738281 C 163.300781 158.390625 156.5625 159.4375 150.367188 160.839844 C 149.976562 159.273438 149.632812 157.738281 149.335938 156.234375 Z M 213.898438 172.164062 C 212.421875 169.605469 210.902344 167.109375 209.351562 164.683594 C 214.128906 165.285156 218.699219 166.085938 222.996094 167.066406 C 221.710938 171.199219 220.105469 175.515625 218.210938 179.949219 C 216.851562 177.371094 215.414062 174.773438 213.898438 172.164062 Z M 187.570312 146.539062 C 190.523438 149.730469 193.476562 153.296875 196.382812 157.164062 C 193.453125 157.023438 190.488281 156.953125 187.5 156.953125 C 184.542969 156.953125 181.601562 157.023438 178.6875 157.160156 C 181.59375 153.328125 184.578125 149.769531 187.570312 146.539062 Z M 161.074219 172.207031 C 159.59375 174.769531 158.183594 177.351562 156.847656 179.941406 C 154.984375 175.527344 153.390625 171.1875 152.089844 167 C 156.363281 166.042969 160.917969 165.265625 165.660156 164.671875 C 164.089844 167.121094 162.554688 169.636719 161.074219 172.207031 Z M 165.796875 210.382812 C 160.894531 209.839844 156.273438 209.097656 152.003906 208.171875 C 153.324219 203.90625 154.953125 199.476562 156.855469 194.96875 C 158.195312 197.554688 159.609375 200.136719 161.097656 202.707031 C 162.613281 205.324219 164.1875 207.882812 165.796875 210.382812 Z M 187.746094 228.511719 C 184.71875 225.246094 181.695312 221.628906 178.742188 217.746094 C 181.605469 217.855469 184.53125 217.914062 187.5 217.914062 C 190.550781 217.914062 193.570312 217.84375 196.535156 217.714844 C 193.621094 221.671875 190.675781 225.292969 187.746094 228.511719 Z M 218.269531 194.738281 C 220.265625 199.296875 221.957031 203.703125 223.296875 207.894531 C 218.957031 208.882812 214.269531 209.675781 209.332031 210.273438 C 210.890625 207.8125 212.421875 205.273438 213.929688 202.660156 C 215.457031 200.019531 216.898438 197.375 218.269531 194.738281 Z M 208.386719 199.472656 C 206.046875 203.527344 203.644531 207.394531 201.207031 211.042969 C 196.769531 211.359375 192.179688 211.523438 187.5 211.523438 C 182.839844 211.523438 178.308594 211.382812 173.945312 211.097656 C 171.410156 207.398438 168.957031 203.519531 166.632812 199.507812 C 164.3125 195.503906 162.179688 191.46875 160.246094 187.453125 C 162.179688 183.433594 164.308594 179.390625 166.613281 175.398438 C 168.925781 171.394531 171.355469 167.53125 173.871094 163.855469 C 178.320312 163.515625 182.886719 163.34375 187.5 163.34375 C 192.136719 163.34375 196.703125 163.519531 201.152344 163.859375 C 203.632812 167.507812 206.046875 171.359375 208.367188 175.363281 C 210.714844 179.414062 212.871094 183.429688 214.816406 187.367188 C 212.875 191.367188 210.726562 195.421875 208.386719 199.472656 Z M 221.578125 128.121094 C 226.59375 131.011719 228.539062 142.65625 225.390625 157.933594 C 225.191406 158.90625 224.960938 159.898438 224.71875 160.90625 C 218.507812 159.472656 211.765625 158.40625 204.707031 157.746094 C 200.59375 151.894531 196.328125 146.574219 192.050781 141.96875 C 193.203125 140.863281 194.351562 139.808594 195.492188 138.8125 C 206.542969 129.203125 216.875 125.410156 221.578125 128.121094 Z M 187.5 173.945312 C 194.878906 173.945312 200.867188 179.921875 200.867188 187.300781 C 200.867188 194.671875 194.878906 200.65625 187.5 200.65625 C 180.121094 200.65625 174.132812 194.671875 174.132812 187.300781 C 174.132812 179.921875 180.121094 173.945312 187.5 173.945312 Z M 187.5 173.945312 "/>
</g>
</g>
</svg>
